<svg width="27" height="60" viewBox="0 0 27 60" fill="none" xmlns="http://www.w3.org/2000/svg">
<path d="M19.553 34.3482C19.5931 34.1927 20.3062 33.0929 20.9305 32.4775C22.4152 31.1408 26.0368 29.9189 26.043 29.8554C26.0491 29.7976 22.4137 28.5855 20.9305 27.2504C20.3062 26.6342 19.5854 25.5368 19.553 25.3789C20.1048 28.0848 14.9205 29.8261 14.9205 29.8823C14.9205 29.9385 20.1758 31.9313 19.553 34.3482Z" fill="#520100"/>
<path d="M21.3613 3.73948C21.2494 3.65401 21.1383 3.58156 21.0279 3.52376C19.7276 2.8432 18.3363 3.00195 17.1123 3.61168C16.7334 3.73786 16.353 3.94625 15.9787 4.24745C15.3274 4.77252 14.6707 5.53448 14.1305 6.4096C13.98 6.62858 13.8396 6.85163 13.7084 7.07957C13.7817 6.52031 13.9013 5.99931 14.0765 5.4889C14.1946 5.27073 14.3196 5.05907 14.4577 4.8637C14.4901 4.84335 14.5202 4.81649 14.5403 4.77172C14.5526 4.74567 14.5673 4.72205 14.5804 4.69681C14.7186 4.51691 14.8644 4.34758 15.0211 4.19373C16.0135 3.21686 17.3979 2.26359 18.7993 2.30592C19.8141 2.33604 20.7015 2.92787 21.3613 3.73948ZM18.7082 1.04169C17.7675 1.21346 16.9866 1.83296 16.2249 2.4378C15.8784 2.71377 15.5088 2.98404 15.1708 3.28524C15.4015 2.89042 15.6407 2.49967 15.9131 2.13986C16.4749 1.39988 17.7729 0.167393 18.7082 1.04169ZM13.0694 6.21992C13.0849 6.10595 13.1018 5.99117 13.1227 5.87639C13.2878 4.94918 13.5571 4.03743 14.024 3.22744C14.3427 2.6747 15.2402 1.49349 15.9841 1.39824C15.7835 1.61722 15.5983 1.85575 15.4239 2.10404C14.6283 3.23639 13.987 4.37038 13.6065 5.61915C13.3387 6.18492 13.1373 6.79465 12.9845 7.43206C12.9868 7.06736 13.01 6.69941 13.0555 6.32738C13.0694 6.294 13.0764 6.25818 13.0694 6.21992Z" fill="#520100"/>
<path d="M8.93245 8.17806C9.42171 8.14387 10.1409 7.39656 10.6587 7.66439C10.4697 7.723 10.2675 7.74253 10.0823 7.85325C9.85231 7.99082 9.66479 8.13817 9.53129 8.3832C9.29361 8.82116 9.16164 9.57744 9.40087 10.0309C9.43714 10.1009 9.51276 10.1155 9.566 10.0545C9.8824 9.68977 10.1471 9.52859 10.6248 9.53918C11.0739 9.54894 11.4381 9.74268 11.7947 10.0178C12.3796 10.4696 12.9846 11.1925 13.2848 11.8959C13.5842 12.5943 13.8389 13.3701 13.8736 14.1337C13.8975 14.6572 13.7517 15.1806 13.9215 15.6853C13.9469 15.7618 14.0411 15.7643 14.0866 15.7089C14.1074 15.6837 14.1275 15.6593 14.1484 15.634C14.1769 15.599 14.1754 15.5616 14.1591 15.5315C14.3436 15.2571 14.3343 14.7475 14.3752 14.4463C14.4609 13.8154 14.4015 13.1642 14.3042 12.5382C14.0882 11.1518 13.4669 9.86886 12.8951 8.61521C12.5957 7.95908 12.2978 7.25655 12.2168 6.53122C12.1396 5.84008 11.9698 5.17581 11.9374 4.47572C11.9035 3.74307 11.8657 2.9575 11.9614 2.23136C12.0679 1.42462 12.3187 0.80105 12.8025 0.169339C12.8449 0.113983 12.8125 0.0105994 12.7392 0.00815725C12.4452 -0.00242552 12.1882 0.232833 11.9629 0.41274C11.5948 0.705802 11.2962 1.0469 11.0137 1.43113C10.455 2.19228 9.99352 2.93308 9.86156 3.90018C9.80908 4.28686 9.76126 4.67271 9.80756 5.06183C9.83688 5.30605 9.9642 5.47538 9.79289 5.64633C9.65784 5.78146 9.47185 5.73506 9.28896 5.73913C8.69012 5.75134 8.24871 5.76274 7.74942 5.36955C7.38132 5.07975 7.06417 4.76145 6.71999 4.44641C6.676 4.4057 6.59188 4.42769 6.57336 4.48793C6.45375 4.88194 6.7601 5.49085 6.88743 5.84904C7.09733 6.43842 7.3628 7.06524 7.75868 7.54391C8.05115 7.89884 8.46557 8.21062 8.93245 8.17806Z" fill="#520100"/>
<path d="M7.29392 29.1182C7.66433 29.0368 7.66047 28.4841 7.31707 28.388C7.5671 27.8353 8.15128 27.3175 8.51861 26.9553C9.06111 26.4204 9.82819 26.0842 10.5852 26.199C11.2844 26.3056 12.0082 26.803 12.4612 27.368C12.7344 27.7083 12.8648 28.0477 12.8602 28.4947C12.8579 28.7079 12.8362 29.2941 12.658 29.5358C12.6348 29.2924 12.3686 29.2419 12.1248 29.4503C11.715 29.8004 11.8925 30.38 12.3185 30.6291C12.8795 30.9588 13.6921 30.7708 14.1381 30.323C14.2554 30.205 14.3604 30.0585 14.4507 29.8948C14.906 29.4178 15.2224 28.7503 15.2177 28.0778C15.2115 27.1238 14.6513 26.3016 13.939 25.7692C13.1349 25.1684 12.2938 24.8371 11.3083 24.8762C10.1669 24.9217 9.31038 25.4224 8.33032 25.9938C8.27476 26.0264 8.26704 26.0924 8.28711 26.1404C7.71219 26.5092 7.04003 27.0114 6.84479 27.6708C6.75064 27.9915 6.73444 29.2411 7.29392 29.1182ZM13.3008 25.595C14.1165 26.0696 14.8581 26.7631 15.0047 27.788C15.0765 28.2903 14.9515 28.7967 14.7076 29.2322C14.7971 28.8748 14.8195 28.5028 14.7524 28.1902C14.338 26.2714 12.4211 25.5209 10.7419 25.3768C10.3622 25.3442 10.0103 25.3817 9.67076 25.472C9.99951 25.3141 10.339 25.1863 10.7025 25.1309C11.6432 24.9893 12.4658 25.109 13.3008 25.595Z" fill="#520100"/>
<path d="M4.75884 31.5058C4.75884 31.5058 2.4368 30.1968 4.01029 29.1287C5.46109 28.1429 6.74211 28.068 10.4771 24.2037C10.4833 24.2737 10.5589 24.3364 10.6284 24.281C10.9741 24.005 11.3075 23.7804 11.6818 23.5443C11.9796 23.3562 12.2412 23.1251 12.4465 22.8271C12.8694 22.2117 13.1966 21.4692 13.4798 20.7757C14.0401 19.4032 14.2932 17.9631 14.1983 16.4701C14.0972 14.89 13.3787 13.4369 12.394 12.2598C11.8716 11.6362 11.2928 11.0623 10.623 10.6186C10.4069 10.4754 10.0959 10.2238 9.83508 10.3313C9.60588 10.2092 9.36897 10.1115 9.12666 10.0561C8.30789 9.87052 7.47986 10.0236 6.74289 10.3907C6.47743 10.4884 6.22121 10.6317 5.98353 10.836C5.87549 10.9288 5.77518 11.0257 5.67872 11.1242C5.5892 11.2056 5.502 11.2886 5.41943 11.3765C5.39937 11.3977 5.39318 11.4205 5.39472 11.4417C3.86831 13.3148 4.10444 15.9597 5.69645 16.449C7.46904 16.9936 8.09954 15.0325 7.13955 14.2811C7.13955 14.2811 6.88874 13.8489 6.44964 14.0735C6.01054 14.2982 5.97659 13.2489 6.77838 12.8606C7.58017 12.4723 9.42222 11.6948 10.9934 15.884C12.6641 20.3377 11.5398 25.3263 3.44772 27.4314C-4.64431 29.5358 3.93775 33.6191 4.75884 31.5058ZM13.212 15.4452C13.2321 15.2678 12.6302 12.4828 10.8321 11.0175C10.6484 10.8677 10.4501 10.7155 10.2433 10.5763C10.6438 10.7709 11.1794 11.2813 11.3067 11.3985C11.8631 11.9065 12.374 12.4886 12.7945 13.126C13.5886 14.3324 14.0115 15.5779 14.0262 17.0465C14.0401 18.4295 13.7252 19.7418 13.1773 20.9938C12.9049 21.6166 12.6109 22.3208 12.1903 22.8466C11.9241 23.1796 11.5714 23.379 11.2149 23.5834C11.0289 23.69 10.8746 23.8194 10.7164 23.9521C10.9502 23.699 11.1832 23.4311 11.414 23.1462C13.5824 20.459 13.7275 17.6546 13.212 15.4452Z" fill="#520100"/>
<path d="M8.93513 26.1685C8.92201 26.0594 8.95133 25.9552 9.00767 25.8567C9.02156 25.851 9.03545 25.8429 9.0478 25.8274C9.08407 25.7802 9.11339 25.7289 9.14117 25.6776C9.38966 25.4098 9.79866 25.1957 10.0194 25.0711C10.4461 24.8293 10.9099 24.5672 11.4015 24.5566C11.8923 24.5452 12.4448 24.6299 12.9063 24.8188C13.2945 24.9775 13.7544 25.4179 13.8408 25.8746C13.8408 25.8746 13.8423 25.877 13.8423 25.8787C13.9272 25.9096 14.0067 25.9519 14.0762 26.0081L14.077 26.0049C14.1973 25.374 14.1263 24.7716 13.6741 24.297C13.2651 23.8671 12.6933 23.6986 12.1276 23.7523C11.4717 23.8142 10.7208 23.907 10.1505 24.2839C9.85653 24.4785 9.59492 24.7292 9.36187 24.9987C9.2299 25.1509 9.14503 25.3121 9.05475 25.4725C8.84484 25.6662 8.68509 25.9031 8.73062 26.1953C8.75223 26.3321 8.95288 26.3077 8.93513 26.1685Z" fill="#520100"/>
<path d="M11.0566 27.6632C11.1477 27.8358 11.3236 27.9856 11.4579 28.0621C11.9325 28.3299 12.3145 28.1256 12.6795 27.7796C12.7065 27.7926 12.7397 27.7926 12.7721 27.7633C12.9465 27.6095 12.9627 27.051 12.634 27.1275C12.5746 27.1414 12.5244 27.2212 12.4835 27.2586C12.4009 27.3351 12.3106 27.4035 12.2226 27.4735C11.9417 27.6494 11.5219 27.8024 11.2681 27.5867C11.2434 27.5647 11.2202 27.5411 11.2002 27.5167L11.1971 27.5142C11.5158 27.7088 11.9788 27.6339 12.0097 27.1577C12.056 26.421 11.2256 26.2101 10.7202 26.0408C10.599 26.0001 10.5218 26.1922 10.6445 26.2345C10.8359 26.3005 11.042 26.3501 11.2241 26.4405C11.4456 26.5211 11.6223 26.6725 11.7542 26.8955C11.5582 27.3677 11.3707 27.4825 11.1932 27.2399C11.1407 27.1862 11.0666 27.2318 11.0381 27.2839C10.9856 27.3799 10.9895 27.4792 11.0204 27.5745C11.018 27.5973 11.0227 27.6217 11.0412 27.6453C11.0458 27.6518 11.0512 27.6567 11.0566 27.6632Z" fill="#520100"/>
<path d="M12.6163 6.03441C12.6163 6.03441 11.8778 2.00237 13.3826 0.671382C14.8874 -0.659605 15.3705 0.347385 14.9893 0.651843C14.6081 0.957115 12.4141 2.0797 12.6163 6.03441Z" fill="#520100"/>
<path d="M18.8007 57.6938C17.3993 57.7362 16.0149 56.7829 15.0225 55.806C14.8659 55.6522 14.72 55.4829 14.5819 55.3021C14.5687 55.2769 14.5541 55.2533 14.5417 55.2272C14.5217 55.1825 14.4916 55.1556 14.4592 55.1353C14.321 54.9399 14.196 54.7282 14.078 54.5101C13.9028 53.9996 13.7832 53.4778 13.7098 52.9186C13.841 53.1457 13.9815 53.3696 14.132 53.5885C14.6721 54.4645 15.3289 55.2256 15.9802 55.7507C16.3537 56.0519 16.7341 56.2603 17.1138 56.3865C18.3377 56.997 19.7291 57.1558 21.0294 56.4744C21.139 56.4166 21.2509 56.3441 21.3628 56.2595C20.7014 57.0719 19.814 57.6629 18.8007 57.6938ZM15.913 57.8583C15.6406 57.4993 15.4022 57.1077 15.1707 56.7129C15.5087 57.0141 15.8775 57.2844 16.2248 57.5603C16.9865 58.1652 17.7674 58.7855 18.7081 58.9573C17.7728 59.8316 16.4748 58.5991 15.913 57.8583ZM13.0554 53.6716C13.0091 53.2995 12.986 52.9324 12.9844 52.5669C13.1372 53.2043 13.3387 53.814 13.6064 54.3798C13.9869 55.6286 14.6282 56.7626 15.4238 57.8949C15.5982 58.1432 15.7834 58.3817 15.9841 58.6007C15.2401 58.5055 14.3426 57.3243 14.0239 56.7715C13.5571 55.9615 13.2877 55.0498 13.1226 54.1226C13.1025 54.0078 13.0855 53.893 13.0693 53.779C13.0763 53.7416 13.0693 53.7049 13.0554 53.6716Z" fill="#520100"/>
<path d="M7.75719 52.4556C7.36131 52.9343 7.09584 53.5611 6.88594 54.1505C6.75861 54.5087 6.45224 55.1176 6.57185 55.5116C6.59037 55.5718 6.67449 55.5938 6.71848 55.5531C7.06343 55.238 7.3806 54.9197 7.74793 54.6299C8.24722 54.2368 8.68863 54.2482 9.28747 54.2604C9.47036 54.2636 9.6571 54.218 9.79138 54.3532C9.96269 54.5249 9.83537 54.6943 9.80605 54.9377C9.75897 55.3276 9.80682 55.7135 9.86007 56.0993C9.99203 57.0664 10.4535 57.8072 11.0122 58.5684C11.2946 58.9526 11.5933 59.2937 11.9614 59.5868C12.1867 59.7659 12.4437 60.0011 12.7377 59.9905C12.8103 59.9881 12.8427 59.8847 12.801 59.8293C12.3172 59.1968 12.0663 58.5741 11.9598 57.7673C11.8642 57.0412 11.902 56.2556 11.9359 55.523C11.9684 54.8237 12.1381 54.1594 12.2153 53.4683C12.2963 52.743 12.5942 52.0404 12.8936 51.3843C13.4654 50.1306 14.0867 48.8477 14.3027 47.4613C14.4007 46.8353 14.4602 46.1841 14.3737 45.5532C14.3328 45.252 14.3421 44.7432 14.1577 44.468C14.1746 44.4379 14.1762 44.4005 14.1469 44.3655C14.126 44.3402 14.106 44.3158 14.0851 44.2906C14.0396 44.2352 13.9462 44.2377 13.92 44.3142C13.7502 44.8189 13.8961 45.3423 13.8721 45.8658C13.8374 46.6294 13.5827 47.4052 13.2833 48.1036C12.9824 48.8062 12.3781 49.5299 11.7932 49.9817C11.4367 50.2568 11.0724 50.4506 10.6233 50.4603C10.1456 50.4709 9.88168 50.3097 9.56451 49.945C9.51127 49.884 9.4364 49.8995 9.39936 49.9687C9.1609 50.4213 9.29209 51.1783 9.52978 51.6155C9.66328 51.8605 9.8508 52.0079 10.0808 52.1454C10.266 52.2561 10.4682 52.2757 10.6572 52.3351C10.1394 52.6021 9.4202 51.8556 8.93094 51.8215C8.4656 51.7889 8.05121 52.1015 7.75719 52.4556Z" fill="#520100"/>
<path d="M6.84479 32.3278C7.04003 32.988 7.71219 33.4895 8.28711 33.8583C8.26704 33.9063 8.27476 33.9722 8.33032 34.0048C9.31038 34.5763 10.1669 35.0769 11.3083 35.1225C12.293 35.1624 13.1341 34.8303 13.939 34.2295C14.6513 33.6971 15.2115 32.8749 15.2177 31.9208C15.2224 31.2492 14.906 30.5817 14.4507 30.1038C14.3604 29.9402 14.2554 29.7929 14.1381 29.6756C13.6921 29.2287 12.8795 29.0407 12.3185 29.3695C11.8925 29.6195 11.715 30.1983 12.1248 30.5491C12.3686 30.7575 12.6348 30.707 12.658 30.4636C12.8355 30.7054 12.8579 31.2916 12.8602 31.5048C12.8648 31.9518 12.7344 32.2912 12.4612 32.6315C12.0082 33.1956 11.2844 33.6938 10.5852 33.8005C9.82742 33.9161 9.06111 33.5791 8.51861 33.0442C8.15128 32.682 7.5671 32.1634 7.31707 31.6115C7.66047 31.5154 7.66356 30.9627 7.29392 30.8812C6.73444 30.7591 6.75064 32.0079 6.84479 32.3278ZM10.7018 34.8677C10.3383 34.8123 9.99796 34.6854 9.66999 34.5266C10.0095 34.6178 10.3622 34.6544 10.7411 34.6219C12.4203 34.477 14.3372 33.7272 14.7516 31.8085C14.8188 31.4959 14.7964 31.1247 14.7069 30.7665C14.9507 31.2028 15.0757 31.7084 15.004 32.2106C14.8573 33.2363 14.1157 33.9291 13.3 34.4045C12.4658 34.8905 11.6432 35.011 10.7018 34.8677Z" fill="#520100"/>
<path d="M3.447 32.5695C11.539 34.6747 12.6634 39.6632 10.9927 44.1169C9.42147 48.3061 7.57943 47.5287 6.77763 47.1404C5.97584 46.7521 6.00979 45.7027 6.44889 45.9274C6.88799 46.1521 7.1388 45.7199 7.1388 45.7199C8.09956 44.9685 7.46832 43.0074 5.69573 43.552C4.10448 44.0412 3.86756 46.6853 5.39398 48.5593C5.39243 48.5804 5.39862 48.6032 5.41868 48.6244C5.50125 48.7115 5.58845 48.7954 5.67797 48.8768C5.77443 48.9753 5.87474 49.0721 5.98278 49.1649C6.22124 49.3693 6.47668 49.5134 6.74214 49.6102C7.47911 49.9774 8.30714 50.1304 9.12591 49.9448C9.36822 49.8903 9.60513 49.7918 9.83433 49.6705C10.0952 49.7779 10.4062 49.5264 10.6223 49.3831C11.2921 48.9395 11.8708 48.3655 12.3933 47.742C13.378 46.5648 14.0964 45.1117 14.1975 43.5316C14.2932 42.0378 14.0393 40.5986 13.4791 39.2261C13.1959 38.5325 12.8686 37.7893 12.4458 37.1747C12.2413 36.8767 11.9797 36.6455 11.681 36.4575C11.3067 36.2214 10.9734 35.9959 10.6276 35.7207C10.5582 35.6654 10.4826 35.7289 10.4764 35.7989C6.74059 31.9346 5.46036 31.8596 4.00957 30.8738C2.43685 29.805 4.75809 28.4968 4.75809 28.4968C3.93778 26.3802 -4.64426 30.4644 3.447 32.5695ZM11.4132 36.8531C11.1825 36.5674 10.9502 36.3004 10.7156 36.0472C10.8738 36.1807 11.0282 36.3093 11.2141 36.416C11.5699 36.6203 11.9233 36.8205 12.1896 37.1527C12.6101 37.6786 12.9042 38.3827 13.1766 39.0055C13.7245 40.2575 14.0401 41.5698 14.0254 42.9528C14.01 44.4206 13.5879 45.6669 12.7938 46.8734C12.374 47.5116 11.8624 48.0928 11.306 48.6008C11.1779 48.718 10.6423 49.2284 10.2426 49.423C10.4502 49.2838 10.6477 49.1316 10.8314 48.9818C12.6302 47.5165 13.2313 44.7308 13.2113 44.5541C13.7276 42.3456 13.5825 39.5403 11.4132 36.8531Z" fill="#520100"/>
<path d="M8.93562 33.8314C8.9225 33.9405 8.95182 34.0447 9.00816 34.1432C9.02205 34.1489 9.03594 34.157 9.04829 34.1725C9.08456 34.2197 9.11388 34.271 9.14166 34.3223C9.39015 34.5901 9.79915 34.8034 10.0199 34.9288C10.4466 35.1706 10.9104 35.4327 11.402 35.4433C11.8928 35.4547 12.4453 35.37 12.9068 35.1803C13.2949 35.0216 13.7549 34.5812 13.8413 34.1245C13.8421 34.1229 13.8428 34.122 13.8428 34.1204C13.9277 34.0895 14.0072 34.0471 14.0767 33.991C14.0767 33.991 14.0774 33.9926 14.0774 33.9942C14.1978 34.6251 14.1268 35.2275 13.6746 35.7021C13.2656 36.1319 12.6938 36.3005 12.1281 36.2467C11.4722 36.1849 10.7213 36.0921 10.151 35.7152C9.85701 35.5206 9.59541 35.2699 9.36235 35.0004C9.23039 34.8482 9.14552 34.687 9.05523 34.5266C8.84533 34.3329 8.68558 34.096 8.73111 33.8038C8.75272 33.667 8.95337 33.6914 8.93562 33.8314Z" fill="#520100"/>
<path d="M11.0407 32.3548C11.023 32.3784 11.0175 32.4029 11.0199 32.4257C10.989 32.5217 10.9851 32.621 11.0376 32.7163C11.0662 32.7684 11.141 32.814 11.1927 32.7602C11.3702 32.5177 11.557 32.6324 11.7537 33.1046C11.6218 33.3268 11.4451 33.4791 11.2236 33.5597C11.0407 33.6492 10.8347 33.6997 10.644 33.7656C10.5213 33.8079 10.5993 34.0001 10.7197 33.9594C11.2251 33.7892 12.0555 33.5792 12.0092 32.8425C11.9791 32.3663 11.5153 32.2913 11.1966 32.4859L11.1997 32.4835C11.219 32.459 11.2429 32.4354 11.2676 32.4126C11.5215 32.1969 11.9405 32.3508 12.2222 32.5258C12.3109 32.5958 12.4004 32.6642 12.483 32.7407C12.5239 32.7782 12.5741 32.8579 12.6335 32.8718C12.9622 32.9483 12.946 32.3907 12.7716 32.236C12.7392 32.2075 12.706 32.2067 12.679 32.2197C12.314 31.8737 11.932 31.6686 11.4574 31.9372C11.3231 32.0129 11.1472 32.1635 11.0561 32.3361C11.0515 32.3426 11.0461 32.3483 11.0407 32.3548Z" fill="#520100"/>
<path d="M12.6163 53.9658C12.6163 53.9658 11.8778 57.9978 13.3826 59.3288C14.8874 60.6598 15.3705 59.6528 14.9893 59.3484C14.6081 59.0439 12.4141 57.9197 12.6163 53.9658Z" fill="#520100"/>
<path d="M0.915875 29.92C0.915875 28.6435 1.8967 27.6089 3.10672 27.6089C4.31674 27.6089 5.29834 28.6435 5.29834 29.92C5.29834 31.1964 4.31751 32.2319 3.10672 32.2319C1.89592 32.2319 0.915875 31.1964 0.915875 29.92Z" fill="#520100"/>
<path d="M11.8207 23.4218C11.8207 23.4218 18.6888 16.1164 14.6119 8.81104C14.6119 8.81104 20.8765 16.1164 11.8207 23.4218Z" fill="#520100"/>
<path d="M11.4258 36.2988C11.4258 36.2988 18.2939 43.6042 14.217 50.9096C14.217 50.9096 20.4825 43.6042 11.4258 36.2988Z" fill="#520100"/>
</svg>
