<svg width="27" height="60" viewBox="0 0 27 60" fill="none" xmlns="http://www.w3.org/2000/svg">
<path d="M6.48997 25.6518C6.44984 25.8073 5.73681 26.9071 5.11251 27.5225C3.62776 28.8592 0.0061815 30.0811 7.90636e-06 30.1446C-0.00616568 30.2024 3.62931 31.4145 5.11251 32.7496C5.73681 33.3658 6.45756 34.4632 6.48997 34.6211C5.93821 31.9152 11.1225 30.1739 11.1225 30.1177C11.1225 30.0615 5.86721 28.0687 6.48997 25.6518Z" fill="#520100"/>
<path d="M4.68164 56.2605C4.79354 56.346 4.90467 56.4184 5.01502 56.4762C6.31533 57.1568 7.70671 56.9981 8.93062 56.3883C9.30953 56.2621 9.68997 56.0538 10.0642 55.7525C10.7156 55.2275 11.3723 54.4655 11.9125 53.5904C12.0629 53.3714 12.2034 53.1484 12.3346 52.9204C12.2613 53.4797 12.1417 54.0007 11.9665 54.5111C11.8484 54.7293 11.7234 54.9409 11.5853 55.1363C11.5529 55.1567 11.5227 55.1835 11.5027 55.2283C11.4903 55.2543 11.4757 55.278 11.4625 55.3032C11.3244 55.4831 11.1786 55.6524 11.0219 55.8063C10.0295 56.7831 8.64509 57.7364 7.24369 57.6941C6.2289 57.664 5.34144 57.0721 4.68164 56.2605ZM7.33473 58.9583C8.27543 58.7865 9.0564 58.167 9.81807 57.5622C10.1646 57.2862 10.5342 57.016 10.8722 56.7148C10.6415 57.1096 10.4022 57.5003 10.1298 57.8601C9.56803 58.6001 8.27003 59.8326 7.33473 58.9583ZM12.9735 53.7801C12.9581 53.894 12.9411 54.0088 12.9203 54.1236C12.7551 55.0508 12.4858 55.9626 12.0189 56.7726C11.7002 57.3253 10.8027 58.5065 10.0588 58.6018C10.2595 58.3828 10.4447 58.1443 10.6191 57.896C11.4147 56.7636 12.056 55.6296 12.4364 54.3808C12.7042 53.8151 12.9056 53.2054 13.0584 52.5679C13.0561 52.9326 13.033 53.3006 12.9874 53.6726C12.9735 53.706 12.9666 53.7418 12.9735 53.7801Z" fill="#520100"/>
<path d="M17.1105 51.8219C16.6213 51.8561 15.902 52.6034 15.3842 52.3356C15.5733 52.277 15.7755 52.2575 15.9607 52.1468C16.1907 52.0092 16.3782 51.8618 16.5117 51.6168C16.7494 51.1788 16.8813 50.4226 16.6421 49.9691C16.6058 49.8991 16.5302 49.8845 16.477 49.9455C16.1606 50.3102 15.8959 50.4714 15.4182 50.4608C14.9691 50.4511 14.6048 50.2573 14.2483 49.9822C13.6634 49.5304 13.0583 48.8075 12.7582 48.1041C12.4587 47.4057 12.2041 46.6299 12.1693 45.8663C12.1454 45.3428 12.2913 44.8194 12.1215 44.3147C12.096 44.2382 12.0019 44.2357 11.9564 44.2911C11.9355 44.3163 11.9154 44.3407 11.8946 44.366C11.8661 44.401 11.8676 44.4384 11.8838 44.4685C11.6994 44.7429 11.7086 45.2525 11.6677 45.5537C11.5821 46.1846 11.6415 46.8358 11.7387 47.4618C11.9548 48.8482 12.576 50.1311 13.1479 51.3848C13.4473 52.0409 13.7452 52.7435 13.8262 53.4688C13.9034 54.1599 14.0731 54.8242 14.1055 55.5243C14.1395 56.2569 14.1773 57.0425 14.0816 57.7686C13.9751 58.5754 13.7243 59.199 13.2405 59.8307C13.198 59.886 13.2304 59.9894 13.3037 59.9918C13.5978 60.0024 13.8547 59.7672 14.0801 59.5873C14.4482 59.2942 14.7468 58.9531 15.0293 58.5689C15.588 57.8077 16.0494 57.0669 16.1814 56.0998C16.2339 55.7131 16.2817 55.3273 16.2354 54.9382C16.2061 54.6939 16.0788 54.5246 16.2501 54.3537C16.3851 54.2185 16.5711 54.2649 16.754 54.2609C17.3529 54.2487 17.7943 54.2373 18.2935 54.6304C18.6616 54.9203 18.9788 55.2386 19.323 55.5536C19.367 55.5943 19.4511 55.5723 19.4696 55.5121C19.5892 55.1181 19.2829 54.5091 19.1555 54.151C18.9456 53.5616 18.6802 52.9348 18.2843 52.4561C17.9918 52.1012 17.5774 51.7894 17.1105 51.8219Z" fill="#520100"/>
<path d="M18.7491 30.8818C18.3786 30.9632 18.3825 31.5159 18.7259 31.612C18.4759 32.1647 17.8917 32.6825 17.5244 33.0447C16.9819 33.5796 16.2148 33.9158 15.4577 33.801C14.7586 33.6944 14.0347 33.197 13.5817 32.632C13.3086 32.2917 13.1781 31.9523 13.1828 31.5053C13.1851 31.2921 13.2067 30.7059 13.385 30.4642C13.4081 30.7076 13.6744 30.7581 13.9182 30.5497C14.328 30.1996 14.1505 29.62 13.7245 29.3709C13.1635 29.0412 12.3509 29.2292 11.9048 29.677C11.7875 29.795 11.6826 29.9415 11.5923 30.1052C11.137 30.5822 10.8206 31.2497 10.8252 31.9222C10.8314 32.8762 11.3917 33.6984 12.104 34.2308C12.9081 34.8316 13.7492 35.1629 14.7347 35.1238C15.876 35.0783 16.7326 34.5776 17.7126 34.0062C17.7682 33.9736 17.7759 33.9076 17.7559 33.8596C18.3308 33.4908 19.0029 32.9886 19.1982 32.3292C19.2923 32.0085 19.3085 30.7589 18.7491 30.8818ZM12.7422 34.405C11.9265 33.9304 11.1849 33.2369 11.0382 32.212C10.9665 31.7097 11.0915 31.2033 11.3353 30.7678C11.2458 31.1252 11.2234 31.4972 11.2906 31.8098C11.705 33.7286 13.6219 34.4791 15.3011 34.6232C15.6808 34.6558 16.0327 34.6183 16.3722 34.528C16.0435 34.6859 15.7039 34.8137 15.3405 34.8691C14.3998 35.0107 13.5771 34.891 12.7422 34.405Z" fill="#520100"/>
<path d="M21.2841 28.4942C21.2841 28.4942 23.6062 29.8032 22.0327 30.8713C20.5819 31.8571 19.3009 31.932 15.5658 35.7963C15.5597 35.7263 15.484 35.6636 15.4146 35.719C15.0689 35.995 14.7355 36.2196 14.3612 36.4557C14.0633 36.6438 13.8017 36.8749 13.5965 37.1729C13.1736 37.7883 12.8464 38.5308 12.5632 39.2243C12.0029 40.5968 11.7498 42.0369 11.8447 43.5299C11.9458 45.11 12.6642 46.5631 13.6489 47.7402C14.1714 48.3638 14.7502 48.9377 15.42 49.3814C15.6361 49.5246 15.9471 49.7762 16.2079 49.6687C16.4371 49.7908 16.674 49.8885 16.9163 49.9439C17.7351 50.1295 18.5631 49.9764 19.3001 49.6093C19.5655 49.5116 19.8218 49.3683 20.0594 49.164C20.1675 49.0712 20.2678 48.9743 20.3643 48.8758C20.4538 48.7944 20.541 48.7114 20.6235 48.6235C20.6436 48.6023 20.6498 48.5795 20.6482 48.5583C22.1747 46.6852 21.9385 44.0403 20.3465 43.551C18.5739 43.0064 17.9434 44.9675 18.9034 45.7189C18.9034 45.7189 19.1542 46.1512 19.5933 45.9265C20.0324 45.7018 20.0664 46.7511 19.2646 47.1394C18.4628 47.5277 16.6207 48.3052 15.0496 44.116C13.3788 39.6623 14.5032 34.6737 22.5952 32.5686C30.6873 30.4642 22.1052 26.3809 21.2841 28.4942ZM12.8309 44.5548C12.8109 44.7322 13.4128 47.5172 15.2109 48.9825C15.3945 49.1323 15.5929 49.2845 15.7997 49.4237C15.3992 49.2291 14.8636 48.7187 14.7363 48.6015C14.1799 48.0935 13.669 47.5114 13.2484 46.874C12.4544 45.6676 12.0315 44.4221 12.0168 42.9535C12.0029 41.5705 12.3178 40.2582 12.8657 39.0062C13.1381 38.3834 13.4321 37.6792 13.8527 37.1534C14.1189 36.8204 14.4716 36.621 14.8281 36.4166C15.0141 36.31 15.1684 36.1806 15.3266 36.0479C15.0928 36.301 14.8597 36.5689 14.629 36.8538C12.4605 39.541 12.3154 42.3454 12.8309 44.5548Z" fill="#520100"/>
<path d="M17.1078 33.8315C17.121 33.9406 17.0916 34.0448 17.0353 34.1433C17.0214 34.149 17.0075 34.1571 16.9952 34.1726C16.9589 34.2198 16.9296 34.2711 16.9018 34.3224C16.6533 34.5902 16.2443 34.8043 16.0236 34.9289C15.5969 35.1707 15.1331 35.4328 14.6415 35.4434C14.1507 35.4548 13.5982 35.3701 13.1367 35.1812C12.7485 35.0225 12.2886 34.5821 12.2022 34.1254C12.2022 34.1254 12.2006 34.123 12.2006 34.1213C12.1157 34.0904 12.0362 34.0481 11.9668 33.9919L11.966 33.9951C11.8456 34.626 11.9166 35.2284 12.3688 35.703C12.7778 36.1329 13.3497 36.3014 13.9153 36.2477C14.5713 36.1858 15.3221 36.093 15.8924 35.7161C16.1864 35.5215 16.4481 35.2708 16.6811 35.0013C16.8131 34.8491 16.8979 34.6879 16.9882 34.5275C17.1981 34.3338 17.3579 34.0969 17.3123 33.8047C17.2907 33.6679 17.0901 33.6923 17.1078 33.8315Z" fill="#520100"/>
<path d="M14.9863 32.3368C14.8953 32.1642 14.7193 32.0144 14.5851 31.9379C14.1105 31.6701 13.7285 31.8744 13.3635 32.2204C13.3365 32.2074 13.3033 32.2074 13.2709 32.2367C13.0965 32.3905 13.0802 32.949 13.409 32.8725C13.4684 32.8586 13.5186 32.7788 13.5595 32.7414C13.642 32.6649 13.7323 32.5965 13.8203 32.5265C14.1012 32.3506 14.521 32.1976 14.7749 32.4133C14.7996 32.4353 14.8227 32.4589 14.8428 32.4833L14.8459 32.4858C14.5272 32.2912 14.0642 32.3661 14.0333 32.8423C13.987 33.579 14.8173 33.7899 15.3228 33.9592C15.444 33.9999 15.5211 33.8078 15.3984 33.7655C15.2071 33.6995 15.001 33.6499 14.8189 33.5595C14.5974 33.4789 14.4207 33.3275 14.2887 33.1045C14.4848 32.6323 14.6723 32.5175 14.8498 32.7601C14.9022 32.8138 14.9763 32.7682 15.0049 32.7161C15.0574 32.6201 15.0535 32.5208 15.0226 32.4255C15.0249 32.4027 15.0203 32.3783 15.0018 32.3547C14.9971 32.3482 14.9917 32.3433 14.9863 32.3368Z" fill="#520100"/>
<path d="M13.4267 53.9656C13.4267 53.9656 14.1652 57.9976 12.6603 59.3286C11.1555 60.6596 10.6724 59.6526 11.0537 59.3482C11.4349 59.0429 13.6288 57.9203 13.4267 53.9656Z" fill="#520100"/>
<path d="M7.24222 2.30615C8.64363 2.26382 10.028 3.21709 11.0205 4.19396C11.1771 4.34782 11.323 4.51713 11.4611 4.69785C11.4742 4.72309 11.4889 4.7467 11.5012 4.77275C11.5213 4.81753 11.5514 4.8444 11.5838 4.86475C11.7219 5.06012 11.8469 5.27178 11.965 5.48995C12.1402 6.00037 12.2598 6.52217 12.3331 7.08143C12.2019 6.8543 12.0615 6.63044 11.911 6.41146C11.3708 5.53553 10.7141 4.77438 10.0628 4.24931C9.68928 3.94811 9.30883 3.7397 8.92916 3.61352C7.70524 3.00298 6.31387 2.84424 5.01355 3.5256C4.90397 3.5834 4.79207 3.65586 4.68018 3.74052C5.34152 2.92809 6.22898 2.33709 7.24222 2.30615ZM10.1299 2.14172C10.4023 2.50072 10.6408 2.89227 10.8723 3.28708C10.5343 2.98588 10.1654 2.71563 9.81816 2.43966C9.05649 1.83481 8.27552 1.2145 7.33482 1.04273C8.27012 0.168431 9.56812 1.40092 10.1299 2.14172ZM12.9875 6.32843C13.0338 6.70046 13.057 7.06759 13.0585 7.43311C12.9057 6.7957 12.7043 6.18597 12.4365 5.6202C12.0561 4.37144 11.4148 3.23743 10.6192 2.10507C10.4448 1.85678 10.2596 1.61826 10.0589 1.39928C10.8028 1.49453 11.7003 2.67573 12.019 3.22848C12.4859 4.03847 12.7552 4.95021 12.9204 5.87743C12.9404 5.99221 12.9574 6.10699 12.9736 6.22096C12.9667 6.25841 12.9736 6.29505 12.9875 6.32843Z" fill="#520100"/>
<path d="M18.2858 7.5444C18.6817 7.06574 18.9471 6.43891 19.157 5.84953C19.2844 5.49134 19.5907 4.88243 19.4711 4.48842C19.4526 4.42818 19.3685 4.40621 19.3245 4.44691C18.9795 4.76195 18.6624 5.08025 18.295 5.37006C17.7957 5.76325 17.3543 5.75183 16.7555 5.73962C16.5726 5.73637 16.3859 5.78197 16.2516 5.64684C16.0803 5.47507 16.2076 5.30573 16.2369 5.06233C16.284 4.67239 16.2361 4.28653 16.1829 3.90066C16.0509 2.93356 15.5895 2.19277 15.0308 1.43163C14.7483 1.04739 14.4497 0.706293 14.0816 0.413232C13.8562 0.234139 13.5992 -0.00112627 13.3052 0.00945665C13.2327 0.011899 13.2003 0.115308 13.242 0.170664C13.7258 0.803188 13.9766 1.42593 14.0831 2.23267C14.1788 2.95881 14.141 3.74437 14.107 4.47702C14.0746 5.1763 13.9048 5.84059 13.8277 6.53172C13.7466 7.25705 13.4488 7.95958 13.1494 8.61571C12.5775 9.86937 11.9563 11.1523 11.7402 12.5387C11.6422 13.1647 11.5828 13.8159 11.6692 14.4468C11.7101 14.748 11.7009 15.2568 11.8853 15.532C11.8683 15.5621 11.8668 15.5995 11.8961 15.6345C11.917 15.6598 11.937 15.6842 11.9578 15.7094C12.0034 15.7648 12.0968 15.7623 12.123 15.6858C12.2928 15.1811 12.1469 14.6577 12.1708 14.1342C12.2056 13.3706 12.4602 12.5948 12.7596 11.8964C13.0606 11.1938 13.6648 10.4701 14.2498 10.0183C14.6063 9.74318 14.9706 9.54942 15.4197 9.53965C15.8974 9.52907 16.1613 9.69028 16.4785 10.055C16.5317 10.116 16.6066 10.1005 16.6436 10.0313C16.8821 9.57873 16.7509 8.82167 16.5132 8.38452C16.3797 8.13949 16.1922 7.99215 15.9622 7.85457C15.777 7.74386 15.5748 7.72432 15.3857 7.66489C15.9036 7.39788 16.6228 8.14436 17.112 8.17855C17.5774 8.21111 17.9918 7.89852 18.2858 7.5444Z" fill="#520100"/>
<path d="M19.1982 27.6722C19.0029 27.012 18.3308 26.5105 17.7559 26.1417C17.7759 26.0937 17.7682 26.0278 17.7126 25.9952C16.7326 25.4237 15.876 24.9231 14.7347 24.8775C13.75 24.8376 12.9088 25.1697 12.104 25.7705C11.3917 26.3029 10.8314 27.1251 10.8252 28.0792C10.8206 28.7508 11.137 29.4183 11.5923 29.8962C11.6826 30.0598 11.7875 30.2071 11.9048 30.3244C12.3509 30.7713 13.1635 30.9593 13.7245 30.6305C14.1505 30.3805 14.328 29.8017 13.9182 29.4509C13.6744 29.2425 13.4081 29.293 13.385 29.5364C13.2075 29.2946 13.1851 28.7084 13.1828 28.4952C13.1781 28.0482 13.3086 27.7088 13.5817 27.3685C14.0347 26.8044 14.7586 26.3062 15.4577 26.1995C16.2156 26.0839 16.9819 26.4209 17.5244 26.9558C17.8917 27.318 18.4759 27.8366 18.7259 28.3885C18.3825 28.4846 18.3794 29.0373 18.7491 29.1188C19.3085 29.2409 19.2923 27.9921 19.1982 27.6722ZM15.3412 25.1323C15.7047 25.1877 16.045 25.3146 16.373 25.4734C16.0334 25.3822 15.6808 25.3456 15.3019 25.3781C13.6226 25.523 11.7058 26.2728 11.2914 28.1915C11.2242 28.5041 11.2466 28.8753 11.3361 29.2335C11.0922 28.7972 10.9672 28.2916 11.039 27.7894C11.1856 26.7637 11.9272 26.0709 12.7429 25.5955C13.5771 25.1095 14.3997 24.989 15.3412 25.1323Z" fill="#520100"/>
<path d="M22.596 27.4305C14.5039 25.3253 13.3796 20.3368 15.0503 15.8831C16.6215 11.6939 18.4635 12.4713 19.2653 12.8596C20.0671 13.2479 20.0332 14.2973 19.5941 14.0726C19.155 13.8479 18.9042 14.2801 18.9042 14.2801C17.9434 15.0315 18.5747 16.9926 20.3472 16.448C21.9385 15.9588 22.1754 13.3147 20.649 11.4407C20.6505 11.4196 20.6444 11.3968 20.6243 11.3756C20.5417 11.2885 20.4545 11.2046 20.365 11.1232C20.2685 11.0247 20.1682 10.9279 20.0602 10.8351C19.8217 10.6307 19.5663 10.4866 19.3008 10.3898C18.5639 10.0226 17.7358 9.86959 16.9171 10.0552C16.6747 10.1097 16.4378 10.2082 16.2086 10.3295C15.9478 10.2221 15.6368 10.4736 15.4207 10.6169C14.7509 11.0605 14.1721 11.6345 13.6497 12.258C12.665 13.4352 11.9465 14.8883 11.8454 16.4684C11.7498 17.9622 12.0036 19.4014 12.5639 20.7739C12.8471 21.4675 13.1743 22.2107 13.5972 22.8253C13.8017 23.1233 14.0633 23.3545 14.362 23.5425C14.7362 23.7786 15.0696 24.0041 15.4153 24.2793C15.4848 24.3346 15.5604 24.2711 15.5666 24.2011C19.3024 28.0654 20.5826 28.1404 22.0334 29.1262C23.6061 30.195 21.2849 31.5032 21.2849 31.5032C22.1052 33.6198 30.6872 29.5356 22.596 27.4305ZM14.6297 23.1469C14.8605 23.4326 15.0928 23.6996 15.3274 23.9528C15.1692 23.8193 15.0148 23.6907 14.8288 23.584C14.4731 23.3797 14.1197 23.1795 13.8534 22.8473C13.4328 22.3214 13.1388 21.6173 12.8664 20.9945C12.3185 19.7425 12.0029 18.4302 12.0175 17.0472C12.033 15.5794 12.4551 14.3331 13.2492 13.1266C13.669 12.4884 14.1806 11.9072 14.737 11.3992C14.8651 11.282 15.4007 10.7716 15.8004 10.577C15.5928 10.7162 15.3953 10.8684 15.2116 11.0182C13.4128 12.4835 12.8116 15.2692 12.8317 15.4459C12.3154 17.6544 12.4605 20.4597 14.6297 23.1469Z" fill="#520100"/>
<path d="M17.1073 26.1686C17.1205 26.0595 17.0911 25.9553 17.0348 25.8568C17.0209 25.8511 17.007 25.843 16.9947 25.8275C16.9584 25.7803 16.9291 25.729 16.9013 25.6777C16.6528 25.4099 16.2438 25.1966 16.0231 25.0712C15.5964 24.8294 15.1326 24.5673 14.641 24.5567C14.1502 24.5453 13.5977 24.63 13.1362 24.8197C12.748 24.9784 12.2881 25.4188 12.2017 25.8755C12.2009 25.8771 12.2001 25.878 12.2001 25.8796C12.1152 25.9105 12.0358 25.9529 11.9663 26.009C11.9663 26.009 11.9655 26.0074 11.9655 26.0058C11.8451 25.3749 11.9161 24.7725 12.3684 24.2979C12.7774 23.8681 13.3492 23.6995 13.9148 23.7533C14.5708 23.8151 15.3217 23.9079 15.8919 24.2848C16.186 24.4794 16.4476 24.7301 16.6806 24.9996C16.8126 25.1518 16.8974 25.313 16.9877 25.4734C17.1976 25.6671 17.3574 25.904 17.3119 26.1962C17.2903 26.333 17.0896 26.3086 17.1073 26.1686Z" fill="#520100"/>
<path d="M15.0023 27.6452C15.02 27.6216 15.0254 27.5971 15.0231 27.5743C15.054 27.4783 15.0578 27.379 15.0053 27.2837C14.9768 27.2316 14.9019 27.186 14.8502 27.2398C14.6728 27.4823 14.486 27.3676 14.2892 26.8954C14.4212 26.6732 14.5979 26.5209 14.8194 26.4403C15.0023 26.3508 15.2083 26.3003 15.3989 26.2344C15.5216 26.1921 15.4437 25.9999 15.3233 26.0406C14.8178 26.2108 13.9875 26.4208 14.0338 27.1575C14.0639 27.6337 14.5277 27.7087 14.8464 27.5141L14.8433 27.5165C14.824 27.541 14.8001 27.5646 14.7754 27.5874C14.5215 27.8031 14.1025 27.6492 13.8208 27.4742C13.732 27.4042 13.6425 27.3358 13.56 27.2593C13.5191 27.2218 13.4689 27.1421 13.4095 27.1282C13.0807 27.0517 13.097 27.6093 13.2714 27.764C13.3038 27.7925 13.3369 27.7933 13.364 27.7803C13.729 28.1263 14.111 28.3314 14.5856 28.0628C14.7198 27.9871 14.8958 27.8365 14.9868 27.6639C14.9915 27.6574 14.9969 27.6517 15.0023 27.6452Z" fill="#520100"/>
<path d="M13.4267 6.03418C13.4267 6.03418 14.1652 2.00216 12.6603 0.671169C11.1555 -0.659819 10.6724 0.347159 11.0537 0.651617C11.4349 0.956076 13.6288 2.08029 13.4267 6.03418Z" fill="#520100"/>
<path d="M25.1271 30.08C25.1271 31.3565 24.1463 32.3911 22.9362 32.3911C21.7262 32.3911 20.7446 31.3565 20.7446 30.08C20.7446 28.8036 21.7255 27.7681 22.9362 27.7681C24.147 27.7681 25.1271 28.8036 25.1271 30.08Z" fill="#520100"/>
<path d="M14.2223 36.5782C14.2223 36.5782 7.35419 43.8836 11.4311 51.189C11.4311 51.189 5.16643 43.8836 14.2223 36.5782Z" fill="#520100"/>
<path d="M14.6172 23.7012C14.6172 23.7012 7.74905 16.3958 11.8259 9.0904C11.8259 9.0904 5.56051 16.3958 14.6172 23.7012Z" fill="#520100"/>
</svg>
