<svg width="315" height="62" viewBox="0 0 315 62" fill="none" xmlns="http://www.w3.org/2000/svg">
<path d="M95.8681 47.1496C96.9375 44.9505 99.451 43.5389 101.683 42.7524C102.036 42.6281 102.401 42.5316 102.777 42.4556C102.825 42.4556 102.872 42.4491 102.92 42.4509C103.001 42.4537 103.065 42.4278 103.121 42.3925C103.52 42.3285 103.931 42.297 104.345 42.2812C105.235 42.4008 106.096 42.6151 106.975 42.9286C106.536 42.9564 106.095 43.0037 105.652 43.0686C103.933 43.2346 102.287 43.6668 100.992 44.2716C100.249 44.6194 99.6356 45.0479 99.1449 45.5376C97.2631 46.9631 95.908 48.9924 95.8561 51.5235C95.8514 51.7378 95.8681 51.9659 95.9024 52.2034C95.2458 50.5636 95.0955 48.7393 95.8681 47.1496ZM97.9559 42.5585C98.7016 42.412 99.4686 42.3424 100.233 42.2868C99.5187 42.5789 98.824 42.9425 98.1405 43.268C96.6389 43.9831 95.1011 44.7158 94.0902 46.0393C93.5633 43.9247 96.4172 42.8609 97.9559 42.5585ZM106.398 41.3435C106.98 41.5559 107.538 41.8026 108.074 42.0781C107.016 41.8267 105.96 41.6718 104.915 41.6533C102.778 41.286 100.598 41.4103 98.2972 41.7748C97.7936 41.8546 97.2937 41.9584 96.8104 42.1013C97.5506 41.0244 100.006 40.5403 101.072 40.4698C102.636 40.3678 104.19 40.6488 105.681 41.1024C105.866 41.1589 106.047 41.2202 106.227 41.2832C106.279 41.3222 106.338 41.3389 106.398 41.3435Z" fill="#520100"/>
<path d="M112.456 34.0836C112.075 33.1061 111.369 32.2157 110.675 31.4403C110.253 30.9691 109.608 30.0296 108.934 29.9137C108.831 29.896 108.73 30.0092 108.755 30.1084C108.938 30.8819 109.149 31.6165 109.277 32.4067C109.45 33.4789 109.076 34.1532 108.576 35.0695C108.423 35.3496 108.341 35.6733 108.034 35.7781C107.644 35.9117 107.499 35.5852 107.165 35.3533C106.632 34.9833 106.027 34.7616 105.418 34.5474C103.894 34.0122 102.436 34.1588 100.87 34.4407C100.079 34.5835 99.3388 34.7839 98.6116 35.1298C98.1674 35.3413 97.6155 35.5574 97.3929 36.0202C97.3382 36.1343 97.4634 36.2641 97.5784 36.2409C98.8954 35.9766 100.01 36.0656 101.279 36.5173C102.421 36.9245 103.541 37.5839 104.587 38.1961C105.586 38.7813 106.423 39.5521 107.374 40.2004C108.372 40.8811 109.161 41.8782 109.881 42.8428C111.256 44.6866 112.635 46.6269 114.492 48.0218C115.33 48.6525 116.237 49.2415 117.231 49.5921C117.705 49.759 118.444 50.1634 118.995 50.0883C119.026 50.1374 119.079 50.169 119.154 50.1504C119.207 50.1374 119.261 50.1254 119.314 50.1124C119.431 50.0846 119.504 49.938 119.412 49.8397C118.809 49.1914 117.925 49.0161 117.177 48.5792C116.085 47.9411 115.155 46.9543 114.372 45.9573C113.585 44.9546 113.013 43.467 112.823 42.2167C112.708 41.4543 112.718 40.7439 113.066 40.0418C113.436 39.2942 113.885 39.0104 114.675 38.799C114.807 38.7637 114.845 38.6357 114.773 38.5253C114.302 37.8103 113.087 37.4346 112.253 37.468C111.787 37.4865 111.419 37.6637 111.032 37.9141C110.72 38.1154 110.529 38.4131 110.29 38.6607C110.316 37.6563 111.99 37.1156 112.436 36.3856C112.861 35.6872 112.739 34.808 112.456 34.0836Z" fill="#520100"/>
<path d="M142.692 48.0681C141.567 47.865 140.289 48.5207 139.284 49.1273C139.23 49.0596 139.127 49.0216 139.035 49.0828C137.407 50.1605 135.981 51.1028 134.994 52.8317C134.14 54.324 133.948 55.8784 134.179 57.5813C134.384 59.0903 135.138 60.5845 136.531 61.3246C137.513 61.8449 138.745 61.8672 139.813 61.5277C140.126 61.5138 140.426 61.4637 140.693 61.3719C141.708 61.0241 142.639 59.9121 142.609 58.7926C142.587 57.943 141.882 57.2252 141.037 57.5915C140.534 57.8095 140.394 58.2593 140.732 58.481C140.234 58.5709 139.357 58.1573 139.043 57.9977C138.383 57.6638 137.992 57.202 137.714 56.5193C137.252 55.3878 137.106 53.8881 137.514 52.725C137.957 51.4655 139.068 50.5371 140.29 50.1077C141.118 49.8164 142.348 49.31 143.36 49.3462C143.224 49.95 144.032 50.3785 144.449 49.8684C145.079 49.0967 143.236 48.1664 142.692 48.0681ZM135.857 52.0878C136.232 51.5675 136.693 51.1399 137.189 50.7532C136.782 51.2086 136.442 51.7252 136.184 52.3364C135.042 55.0428 134.594 58.5811 137.072 60.6884C137.475 61.0315 138.038 61.281 138.635 61.4164C137.799 61.46 136.956 61.2662 136.278 60.7709C134.893 59.7599 134.476 58.0831 134.438 56.459C134.4 54.7979 134.887 53.4345 135.857 52.0878Z" fill="#520100"/>
<path d="M145.077 42.6309C135.463 53.5307 127.245 51.454 122.065 45.4634C117.194 39.8299 119.82 37.577 121.036 36.6338C122.251 35.6915 123.762 36.5466 123.078 37.0539C122.395 37.5603 122.827 38.2791 122.827 38.2791C123.153 40.3391 126.537 40.864 127.168 37.7069C127.736 34.8725 124.051 32.4842 120.074 33.4108C120.044 33.3913 120.006 33.3839 119.959 33.3987C119.764 33.4599 119.571 33.5313 119.38 33.6065C119.158 33.6797 118.934 33.7614 118.712 33.8569C118.22 34.0684 117.804 34.354 117.446 34.6898C116.312 35.5486 115.42 36.7117 115.031 38.1196C114.916 38.5351 114.868 38.9775 114.862 39.4246C114.494 39.7455 114.613 40.4188 114.648 40.8621C114.758 42.2367 115.131 43.5713 115.625 44.855C116.555 47.2776 118.106 49.4998 120.34 50.8641C122.452 52.1542 124.766 52.8628 127.229 53.0474C128.474 53.1402 129.827 53.2023 131.07 53.0196C131.671 52.9315 132.222 52.7033 132.738 52.3861C133.385 51.9883 133.984 51.6451 134.668 51.3214C134.804 51.2565 134.773 51.0904 134.675 51.0283C143.353 48.2097 146.726 42.0141 149.342 40.5246C152.177 38.9108 152.221 43.5009 152.221 43.5009C155.982 43.8496 154.691 31.7311 145.077 42.6309ZM132.371 51.6683C132.976 51.5301 133.555 51.3752 134.116 51.2064C133.793 51.3492 133.48 51.4893 133.174 51.6952C132.587 52.0894 132.009 52.4817 131.307 52.6393C130.197 52.8879 128.927 52.8035 127.794 52.7488C125.516 52.6384 123.34 52.1218 121.323 51.0422C119.185 49.8958 117.699 48.2894 116.572 46.1395C115.976 45.0024 115.536 43.767 115.241 42.5186C115.173 42.2311 114.856 41.0124 114.894 40.2454C114.931 40.672 114.994 41.094 115.066 41.4938C115.762 45.3948 119.359 48.4564 119.634 48.5603C122.455 51.0459 126.683 52.9667 132.371 51.6683Z" fill="#520100"/>
<path d="M138.8 50.1501C138.652 50.0463 138.475 50.0129 138.285 50.0231C138.265 50.0407 138.242 50.0565 138.21 50.063C138.111 50.0824 138.013 50.0889 137.914 50.0926C137.321 50.2726 136.677 50.741 136.317 50.9867C135.618 51.4616 134.861 51.9782 134.447 52.7304C134.034 53.4807 133.712 54.3999 133.618 55.2569C133.538 55.9775 133.812 57.0256 134.412 57.5088C134.414 57.5106 134.414 57.5125 134.416 57.5144C134.393 57.6692 134.391 57.8241 134.418 57.9744L134.414 57.9735C133.392 57.6767 132.567 57.1072 132.235 56.0443C131.935 55.0825 132.149 54.0697 132.684 53.2368C133.304 52.2694 134.046 51.1797 135.058 50.587C135.58 50.2809 136.158 50.0685 136.742 49.9136C137.072 49.8264 137.377 49.8172 137.685 49.8005C138.137 49.6234 138.614 49.5575 139.005 49.8524C139.189 49.9925 138.992 50.2837 138.8 50.1501Z" fill="#520100"/>
<path d="M139.266 54.5344C139.246 54.4881 139.214 54.4621 139.179 54.4482C139.064 54.3267 138.921 54.2451 138.739 54.2525C138.639 54.2562 138.512 54.3369 138.548 54.4593C138.761 54.9193 138.442 55.1206 137.591 55.0631C137.371 54.6884 137.292 54.2998 137.352 53.8963C137.368 53.5457 137.461 53.1887 137.518 52.8427C137.555 52.6211 137.211 52.5941 137.173 52.8121C137.014 53.7229 136.652 55.1688 137.769 55.6604C138.492 55.9785 138.976 55.3182 138.948 54.6773C138.949 54.6801 138.948 54.6819 138.949 54.6847C138.969 54.7339 138.985 54.7876 138.997 54.8433C139.109 55.4007 138.546 55.9312 138.061 56.2317C137.887 56.3152 137.715 56.4024 137.535 56.471C137.447 56.5053 137.289 56.522 137.22 56.6037C136.843 57.0526 137.674 57.4551 138.04 57.303C138.109 57.2752 138.136 57.2241 138.139 57.1722C138.941 56.8726 139.548 56.4386 139.538 55.5C139.535 55.2347 139.456 54.8479 139.277 54.5752C139.275 54.5604 139.272 54.5474 139.266 54.5344Z" fill="#520100"/>
<path d="M106.324 40.4402C106.324 40.4402 101.01 36.2146 97.8457 37.5233C94.6821 38.832 95.7663 40.3493 96.5203 39.9932C97.2753 39.6361 100.691 37.1022 106.324 40.4402Z" fill="#520100"/>
<path d="M214.494 51.8418C214.528 51.6044 214.545 51.3762 214.54 51.162C214.489 48.6309 213.134 46.6015 211.252 45.176C210.761 44.6863 210.148 44.2578 209.405 43.91C208.11 43.3043 206.464 42.8731 204.744 42.707C204.303 42.6421 203.861 42.5957 203.422 42.567C204.3 42.2526 205.161 42.0393 206.051 41.9196C206.467 41.9354 206.878 41.966 207.275 42.0309C207.331 42.0661 207.395 42.0912 207.477 42.0884C207.525 42.0875 207.571 42.093 207.62 42.093C207.995 42.1691 208.361 42.2655 208.713 42.3898C210.945 43.1773 213.459 44.588 214.528 46.787C215.303 48.3758 215.153 50.2011 214.494 51.8418ZM216.308 45.6768C215.297 44.3533 213.759 43.6206 212.258 42.9055C211.574 42.58 210.88 42.2164 210.165 41.9243C210.93 41.9799 211.696 42.0495 212.442 42.196C213.981 42.4984 216.835 43.5622 216.308 45.6768ZM204.169 40.9198C204.349 40.8567 204.53 40.7955 204.716 40.7389C206.208 40.2844 207.761 40.0043 209.325 40.1064C210.392 40.1759 212.847 40.6601 213.587 41.7369C213.104 41.5941 212.605 41.4902 212.1 41.4104C209.799 41.0468 207.619 40.9226 205.483 41.2889C204.437 41.3075 203.381 41.4633 202.324 41.7146C202.861 41.4392 203.418 41.1934 204 40.9801C204.06 40.9764 204.118 40.9597 204.169 40.9198Z" fill="#520100"/>
<path d="M197.963 36.0206C198.408 36.7506 200.083 37.2913 200.108 38.2957C199.869 38.049 199.677 37.7513 199.366 37.5501C198.978 37.2996 198.612 37.1225 198.145 37.1039C197.311 37.0715 196.097 37.4462 195.625 38.1622C195.553 38.2716 195.591 38.3996 195.724 38.4349C196.513 38.6454 196.964 38.9302 197.333 39.6777C197.681 40.3798 197.691 41.0903 197.575 41.8527C197.386 43.1029 196.813 44.5906 196.026 45.5932C195.243 46.5893 194.313 47.5771 193.221 48.2152C192.473 48.6529 191.589 48.8282 190.986 49.4756C190.894 49.5739 190.967 49.7205 191.084 49.7483C191.137 49.7613 191.191 49.7733 191.244 49.7863C191.319 49.8039 191.373 49.7724 191.403 49.7233C191.954 49.7984 192.694 49.394 193.167 49.2271C194.162 48.8774 195.068 48.2875 195.906 47.6568C197.763 46.2619 199.142 44.3216 200.518 42.4778C201.237 41.5132 202.027 40.5161 203.025 39.8354C203.975 39.1871 204.812 38.4154 205.811 37.8311C206.857 37.218 207.978 36.5586 209.119 36.1523C210.388 35.6997 211.503 35.6117 212.82 35.876C212.935 35.8992 213.06 35.7693 213.005 35.6552C212.784 35.1924 212.231 34.9763 211.787 34.7648C211.06 34.4198 210.319 34.2186 209.528 34.0757C207.962 33.7938 206.504 33.6472 204.98 34.1824C204.371 34.3957 203.767 34.6174 203.233 34.9884C202.9 35.2202 202.754 35.5467 202.364 35.4131C202.057 35.3083 201.975 34.9847 201.822 34.7046C201.321 33.7882 200.948 33.1139 201.122 32.0418C201.25 31.2515 201.46 30.517 201.644 29.7435C201.667 29.6442 201.568 29.531 201.465 29.5487C200.79 29.6655 200.145 30.6041 199.723 31.0762C199.029 31.8516 198.324 32.7411 197.942 33.7196C197.66 34.4449 197.537 35.3241 197.963 36.0206Z" fill="#520100"/>
<path d="M165.952 49.5053C166.369 50.0154 167.177 49.5879 167.041 48.9831C168.053 48.947 169.283 49.4534 170.111 49.7446C171.332 50.174 172.444 51.1025 172.887 52.362C173.295 53.525 173.149 55.0248 172.687 56.1563C172.408 56.8389 172.017 57.3008 171.357 57.6347C171.043 57.7942 170.166 58.2088 169.669 58.1179C170.007 57.8962 169.867 57.4464 169.364 57.2284C168.52 56.863 167.815 57.5809 167.792 58.4295C167.762 59.549 168.694 60.6611 169.708 61.0089C169.975 61.1007 170.275 61.1508 170.588 61.1647C171.656 61.5042 172.889 61.4819 173.87 60.9616C175.263 60.2224 176.017 58.7273 176.222 57.2183C176.453 55.5154 176.261 53.9619 175.408 52.4686C174.42 50.7389 172.994 49.7975 171.367 48.7197C171.275 48.6585 171.171 48.6966 171.117 48.7643C170.113 48.1577 168.835 47.502 167.709 47.7051C167.164 47.8034 165.32 48.7336 165.952 49.5053ZM175.962 56.096C175.924 57.72 175.507 59.3969 174.122 60.4079C173.444 60.9031 172.601 61.097 171.765 61.0534C172.362 60.918 172.925 60.6685 173.328 60.3253C175.806 58.2172 175.358 54.6797 174.216 51.9734C173.958 51.3621 173.618 50.8455 173.211 50.3901C173.708 50.7769 174.169 51.2045 174.543 51.7248C175.513 53.0715 176 54.434 175.962 56.096Z" fill="#520100"/>
<path d="M158.177 43.1385C158.177 43.1385 158.222 38.5484 161.057 40.1622C163.672 41.6508 167.045 47.8464 175.723 50.666C175.626 50.7281 175.594 50.8942 175.731 50.9591C176.414 51.2828 177.014 51.6259 177.661 52.0238C178.177 52.3401 178.727 52.5683 179.328 52.6573C180.57 52.84 181.925 52.7779 183.169 52.6851C185.633 52.5006 187.948 51.792 190.059 50.5018C192.293 49.1375 193.844 46.9143 194.773 44.4927C195.266 43.2081 195.64 41.8744 195.75 40.4999C195.785 40.0556 195.904 39.3832 195.535 39.0623C195.529 38.6152 195.482 38.1728 195.367 37.7573C194.978 36.3494 194.086 35.1863 192.952 34.3275C192.595 33.9908 192.179 33.7061 191.686 33.4946C191.464 33.3991 191.24 33.3175 191.018 33.2442C190.827 33.1681 190.635 33.0976 190.44 33.0364C190.392 33.0216 190.354 33.0299 190.325 33.0485C186.348 32.1219 182.663 34.5102 183.23 37.3446C183.862 40.5017 187.245 39.9768 187.572 37.9168C187.572 37.9168 188.003 37.198 187.32 36.6916C186.636 36.1852 188.147 35.3291 189.362 36.2715C190.578 37.2138 193.204 39.4676 188.332 45.1011C183.153 51.0908 174.935 53.1674 165.321 42.2685C155.707 31.3669 154.416 43.4854 158.177 43.1385ZM190.764 48.1952C191.04 48.0904 194.637 45.0297 195.333 41.1287C195.405 40.7299 195.468 40.3079 195.505 39.8803C195.543 40.6483 195.226 41.8661 195.158 42.1536C194.862 43.402 194.422 44.6374 193.827 45.7745C192.7 47.9244 191.215 49.5317 189.075 50.6771C187.06 51.7567 184.882 52.2742 182.604 52.3837C181.472 52.4384 180.202 52.5228 179.092 52.2743C178.39 52.1175 177.812 51.7243 177.225 51.3301C176.919 51.1242 176.605 50.9841 176.283 50.8413C176.843 51.0092 177.423 51.165 178.027 51.3032C183.716 52.6035 187.943 50.6827 190.764 48.1952Z" fill="#520100"/>
<path d="M171.598 49.7876C171.746 49.6837 171.923 49.6503 172.113 49.6605C172.133 49.6782 172.156 49.6939 172.188 49.7004C172.287 49.7199 172.385 49.7264 172.483 49.7301C173.077 49.91 173.72 50.3784 174.081 50.6242C174.78 51.0991 175.538 51.6156 175.951 52.3678C176.364 53.1182 176.686 54.0373 176.78 54.8943C176.86 55.6149 176.587 56.663 175.986 57.1462C175.985 57.1481 175.984 57.15 175.982 57.1518C176.005 57.3067 176.007 57.4616 175.98 57.6118C175.982 57.6109 175.984 57.6118 175.986 57.6109C177.007 57.3141 177.832 56.7446 178.164 55.6817C178.465 54.7199 178.25 53.7071 177.715 52.8743C177.095 51.9069 176.353 50.8171 175.341 50.2244C174.819 49.9184 174.241 49.706 173.657 49.5511C173.327 49.4639 173.022 49.4546 172.714 49.4379C172.262 49.2608 171.785 49.1949 171.395 49.4899C171.21 49.629 171.407 49.9211 171.598 49.7876Z" fill="#520100"/>
<path d="M171.119 54.2098C170.94 54.4825 170.861 54.8693 170.859 55.1345C170.848 56.0731 171.457 56.5072 172.258 56.8068C172.261 56.8597 172.288 56.9097 172.357 56.9376C172.723 57.0887 173.555 56.6871 173.176 56.2373C173.108 56.1557 172.95 56.139 172.862 56.1047C172.683 56.0361 172.51 55.9489 172.336 55.8654C171.852 55.5649 171.288 55.0334 171.399 54.477C171.412 54.4213 171.427 54.3675 171.448 54.3183C171.449 54.3156 171.448 54.3137 171.449 54.3109C171.422 54.9518 171.905 55.6113 172.627 55.2941C173.745 54.8025 173.382 53.3575 173.224 52.4458C173.186 52.2278 172.842 52.2547 172.879 52.4764C172.936 52.8223 173.029 53.1794 173.045 53.53C173.105 53.9335 173.025 54.3221 172.805 54.6968C171.955 54.7543 171.636 54.553 171.848 54.093C171.884 53.9706 171.758 53.8908 171.658 53.8862C171.475 53.8787 171.333 53.9604 171.218 54.0819C171.182 54.0958 171.151 54.1217 171.13 54.1681C171.127 54.1839 171.124 54.1969 171.119 54.2098Z" fill="#520100"/>
<path d="M204.076 40.0764C204.076 40.0764 209.39 35.8508 212.554 37.1595C215.718 38.4682 214.634 39.9846 213.88 39.6294C213.125 39.2732 209.709 36.7394 204.076 40.0764Z" fill="#520100"/>
<path d="M311.341 40.418C311.398 39.9821 311.421 39.5638 311.406 39.1724C311.234 34.5396 308.692 30.8668 305.203 28.3144C304.289 27.4332 303.155 26.6672 301.783 26.0532C299.394 24.9847 296.368 24.2436 293.215 23.9932C292.405 23.8875 291.595 23.8161 290.791 23.778C292.389 23.1761 293.959 22.7587 295.584 22.512C296.345 22.5278 297.098 22.5723 297.829 22.678C297.932 22.7402 298.051 22.7847 298.2 22.7782C298.288 22.7745 298.374 22.7838 298.461 22.7829C299.15 22.9099 299.824 23.0759 300.473 23.292C304.584 24.6647 309.229 27.1717 311.254 31.1645C312.716 34.049 312.496 37.3944 311.341 40.418ZM314.473 29.0767C312.582 26.6848 309.744 25.39 306.973 24.1277C305.712 23.5527 304.429 22.9081 303.113 22.3952C304.515 22.474 305.92 22.5779 307.29 22.8227C310.117 23.3292 315.373 25.1887 314.473 29.0767ZM292.105 20.7387C292.432 20.6181 292.763 20.5003 293.099 20.3909C295.817 19.5144 298.652 18.9523 301.518 19.0924C303.473 19.187 307.983 19.9986 309.37 21.9481C308.482 21.7024 307.563 21.5261 306.639 21.3963C302.415 20.7999 298.42 20.6394 294.52 21.3768C292.607 21.4426 290.679 21.7598 288.75 22.2514C289.724 21.7302 290.737 21.2627 291.797 20.8555C291.907 20.8453 292.014 20.8119 292.105 20.7387Z" fill="#520100"/>
<path d="M280.592 11.9602C281.429 13.2837 284.511 14.2223 284.589 16.0606C284.145 15.6163 283.785 15.0775 283.207 14.7176C282.49 14.2715 281.814 13.958 280.959 13.9385C279.432 13.9033 277.22 14.6276 276.378 15.9521C276.249 16.1552 276.323 16.3889 276.566 16.4492C278.018 16.8109 278.85 17.3182 279.55 18.6752C280.208 19.9504 280.249 21.2498 280.06 22.6494C279.752 24.9431 278.749 27.6847 277.338 29.5443C275.937 31.3928 274.263 33.2283 272.283 34.4303C270.928 35.2539 269.314 35.6017 268.229 36.8065C268.064 36.9901 268.202 37.2554 268.417 37.3036C268.514 37.325 268.613 37.3472 268.71 37.3685C268.847 37.3991 268.946 37.3398 269 37.2489C270.012 37.3695 271.352 36.6071 272.215 36.2871C274.024 35.6165 275.665 34.5091 277.182 33.3294C280.539 30.7185 283.004 27.1236 285.467 23.7068C286.755 21.9186 288.169 20.0692 289.975 18.793C291.697 17.5761 293.205 16.1395 295.014 15.0385C296.911 13.8848 298.943 12.6438 301.02 11.8638C303.329 10.9975 305.368 10.8 307.787 11.2442C307.997 11.2832 308.223 11.0421 308.12 10.8343C307.699 9.994 306.682 9.61464 305.862 9.24086C304.521 8.63058 303.159 8.28554 301.706 8.0481C298.83 7.57972 296.156 7.3562 293.382 8.38199C292.274 8.79194 291.174 9.21581 290.21 9.91049C289.605 10.3455 289.349 10.9474 288.632 10.7146C288.067 10.5319 287.906 9.94108 287.618 9.43375C286.673 7.77077 285.968 6.54834 286.254 4.5793C286.465 3.12872 286.828 1.77739 287.141 0.355561C287.181 0.172849 286.994 -0.0311962 286.807 0.00404739C285.575 0.237771 284.422 1.97771 283.665 2.85326C282.418 4.29364 281.154 5.94455 280.485 7.74665C279.991 9.08315 279.792 10.697 280.592 11.9602Z" fill="#520100"/>
<path d="M222.401 37.6225C223.181 38.5444 224.647 37.7357 224.378 36.6338C226.228 36.5364 228.498 37.4268 230.021 37.9342C232.271 38.6836 234.334 40.3493 235.182 42.6411C235.965 44.7576 235.744 47.5076 234.934 49.5926C234.444 50.8512 233.741 51.7082 232.544 52.3398C231.974 52.6412 230.381 53.4268 229.468 53.2766C230.079 52.8601 229.808 52.0411 228.882 51.6572C227.324 51.0135 226.057 52.3491 226.041 53.9045C226.02 55.9551 227.759 57.9631 229.627 58.5678C230.12 58.7274 230.67 58.8099 231.243 58.8257C233.208 59.4146 235.464 59.3358 237.245 58.3527C239.772 56.9568 241.107 54.1976 241.436 51.429C241.807 48.3043 241.407 45.4653 239.801 42.7589C237.939 39.6231 235.302 37.9425 232.288 36.0189C232.118 35.9095 231.93 35.9827 231.833 36.108C229.975 35.0284 227.616 33.8671 225.562 34.2725C224.569 34.47 221.222 36.2294 222.401 37.6225ZM240.928 49.3839C240.908 52.3584 240.195 55.4404 237.691 57.3334C236.465 58.2599 234.928 58.6411 233.397 58.5864C234.485 58.3202 235.507 57.8463 236.235 57.2054C240.707 53.2701 239.78 46.8074 237.605 41.8871C237.113 40.775 236.478 39.8411 235.718 39.0193C236.64 39.7121 237.496 40.481 238.197 41.4224C240.014 43.8589 240.948 46.3399 240.928 49.3839Z" fill="#520100"/>
<path d="M207.975 26.2063C207.975 26.2063 207.916 17.8015 213.156 20.6702C217.989 23.3163 224.352 34.5556 240.325 39.4518C240.149 39.5686 240.096 39.8738 240.348 39.9879C241.609 40.5592 242.717 41.1704 243.915 41.8781C244.869 42.442 245.884 42.8427 246.987 42.9864C249.267 43.2832 251.743 43.1293 254.019 42.9206C258.523 42.5079 262.738 41.1399 266.565 38.7136C270.613 36.1472 273.383 32.0311 275.013 27.568C275.876 25.2011 276.52 22.747 276.679 20.2279C276.73 19.4145 276.926 18.1791 276.243 17.6022C276.218 16.7833 276.117 15.9754 275.894 15.2177C275.139 12.6523 273.47 10.5506 271.37 9.01282C270.706 8.40809 269.934 7.89798 269.027 7.52606C268.617 7.35725 268.206 7.21536 267.795 7.08736C267.443 6.95473 267.089 6.83046 266.731 6.72472C266.644 6.69876 266.574 6.71451 266.52 6.75068C259.211 5.1758 252.538 9.66015 253.663 14.8327C254.916 20.5933 261.094 19.5286 261.628 15.7482C261.628 15.7482 262.396 14.4191 261.13 13.512C259.864 12.6049 262.603 10.993 264.857 12.681C267.111 14.369 271.988 18.4147 263.241 28.8767C253.942 40.0009 238.961 44.054 221.027 24.3932C203.093 4.73143 201.101 26.9567 207.975 26.2063ZM267.788 34.4694C268.29 34.27 274.78 28.5567 275.937 21.3928C276.055 20.6601 276.158 19.8857 276.212 19.1029C276.306 20.5071 275.763 22.747 275.647 23.2757C275.144 25.5702 274.377 27.8453 273.32 29.9452C271.323 33.9157 268.652 36.9022 264.772 39.066C261.115 41.1046 257.144 42.1174 252.978 42.3882C250.906 42.5227 248.583 42.7165 246.545 42.2955C245.255 42.0293 244.184 41.3281 243.097 40.6241C242.531 40.2568 241.952 40.0101 241.357 39.7579C242.388 40.0482 243.454 40.3153 244.564 40.5499C255.016 42.7537 262.699 39.1087 267.788 34.4694Z" fill="#520100"/>
<path d="M232.748 37.967C233.017 37.7722 233.34 37.7054 233.688 37.7184C233.724 37.7509 233.767 37.7777 233.827 37.7889C234.008 37.8213 234.188 37.8306 234.369 37.8343C235.461 38.145 236.652 38.9835 237.321 39.4222C238.614 40.2708 240.017 41.1918 240.797 42.5571C241.576 43.9186 242.193 45.5909 242.393 47.1574C242.561 48.4754 242.092 50.4017 241.009 51.3041C241.005 51.3069 241.004 51.3116 241 51.3144C241.049 51.5982 241.056 51.881 241.012 52.1565C241.015 52.1556 241.018 52.1565 241.021 52.1556C242.881 51.5815 244.376 50.513 244.95 48.557C245.469 46.7864 245.045 44.9398 244.042 43.4308C242.876 41.6797 241.485 39.7069 239.614 38.6514C238.649 38.107 237.584 37.7351 236.511 37.4708C235.905 37.3214 235.346 37.314 234.782 37.2927C233.947 36.9829 233.073 36.8772 232.367 37.4281C232.032 37.6896 232.403 38.2174 232.748 37.967Z" fill="#520100"/>
<path d="M232.005 46.0787C231.686 46.5833 231.554 47.2937 231.556 47.7806C231.567 49.4993 232.693 50.2746 234.17 50.7996C234.177 50.8961 234.228 50.9869 234.354 51.037C235.03 51.3032 236.539 50.5418 235.834 49.7311C235.706 49.5837 235.417 49.5577 235.255 49.4983C234.925 49.3778 234.606 49.2229 234.286 49.0763C233.39 48.5412 232.342 47.5859 232.529 46.5628C232.552 46.4608 232.578 46.3625 232.614 46.2716C232.616 46.267 232.615 46.2633 232.617 46.2587C232.585 47.4328 233.49 48.6256 234.803 48.0218C236.834 47.0878 236.127 44.4528 235.809 42.7899C235.733 42.392 235.104 42.4523 235.178 42.8567C235.294 43.4873 235.475 44.1384 235.515 44.7802C235.637 45.5176 235.504 46.2317 235.113 46.9236C233.559 47.0553 232.968 46.6964 233.343 45.8487C233.406 45.6242 233.171 45.4805 232.988 45.4758C232.655 45.4675 232.396 45.6215 232.188 45.8468C232.124 45.8737 232.067 45.922 232.031 46.0073C232.019 46.0305 232.015 46.0546 232.005 46.0787Z" fill="#520100"/>
<path d="M291.908 19.1985C291.908 19.1985 301.508 11.3001 307.34 13.5993C313.173 15.8976 311.233 18.7088 309.841 18.08C308.449 17.4521 302.118 12.9167 291.908 19.1985Z" fill="#520100"/>
<path d="M3.32269 31.1635C5.34738 27.1697 9.99217 24.6637 14.1037 23.291C14.752 23.0749 15.4254 22.9089 16.1145 22.7819C16.2017 22.7828 16.287 22.7735 16.3751 22.7772C16.5245 22.7837 16.6422 22.7401 16.7461 22.677C17.477 22.5713 18.23 22.5268 18.9906 22.511C20.6155 22.7578 22.1858 23.1751 23.7838 23.7771C22.9797 23.8151 22.17 23.8874 21.3594 23.9922C18.2069 24.2436 15.1805 24.9837 12.7913 26.0522C11.4196 26.6652 10.2853 27.4313 9.3717 28.3133C5.88251 30.8658 3.34029 34.5395 3.16871 39.1714C3.15387 39.5628 3.17706 39.9811 3.23364 40.417C2.07892 37.3943 1.85912 34.0489 3.32269 31.1635ZM7.28577 22.8227C8.65659 22.5769 10.0608 22.473 11.4623 22.3951C10.1462 22.908 8.86342 23.5526 7.60204 24.1276C4.83165 25.3899 1.99356 26.6847 0.102425 29.0766C-0.79816 25.1886 4.4588 23.3291 7.28577 22.8227ZM22.7775 20.8555C23.8367 21.2627 24.8495 21.7301 25.8243 22.2514C23.8951 21.7589 21.9678 21.4426 20.0544 21.3767C16.1544 20.6394 12.1597 20.8008 7.93502 21.3962C7.01032 21.527 6.09303 21.7023 5.20358 21.948C6.59202 19.9985 11.1014 19.1869 13.0556 19.0923C15.9216 18.9532 18.7569 19.5143 21.4744 20.3908C21.8111 20.4993 22.1412 20.6171 22.4686 20.7386C22.5614 20.8119 22.6671 20.8453 22.7775 20.8555Z" fill="#520100"/>
<path d="M34.088 7.74821C33.4193 5.94612 32.1561 4.29519 30.9086 2.85482C30.1509 1.97927 28.998 0.240246 27.7663 0.00559506C27.579 -0.0296492 27.3926 0.174391 27.4325 0.357108C27.745 1.77894 28.1086 3.12937 28.3191 4.58088C28.6039 6.54992 27.8999 7.77232 26.9557 9.43529C26.6672 9.94263 26.5059 10.5325 25.941 10.7162C25.2241 10.948 24.9681 10.347 24.3634 9.91202C23.3988 9.21734 22.2988 8.7935 21.1914 8.38355C18.4173 7.35682 15.7434 7.58033 12.8672 8.04963C11.4148 8.28613 10.0533 8.63117 8.71214 9.24237C7.89224 9.61522 6.8748 9.99547 6.45372 10.8358C6.34984 11.0435 6.57616 11.2847 6.78669 11.2457C9.20557 10.8015 11.2441 10.9981 13.5536 11.8653C15.6302 12.6444 17.6623 13.8863 19.559 15.0401C21.3695 16.141 22.8776 17.5786 24.598 18.7945C26.4038 20.0707 27.8183 21.9201 29.1066 23.7083C31.569 27.1252 34.0342 30.7201 37.3917 33.331C38.9082 34.5098 40.5479 35.6172 42.3584 36.2887C43.2209 36.6087 44.5612 37.3711 45.573 37.2505C45.6278 37.3414 45.7261 37.3998 45.8633 37.3702C45.9607 37.3488 46.0591 37.3266 46.1564 37.3052C46.3716 37.257 46.5098 36.9917 46.3447 36.8081C45.2605 35.6033 43.6476 35.2555 42.2907 34.4319C40.3124 33.2299 38.6383 31.3944 37.2359 29.5459C35.8252 27.6863 34.8226 24.9447 34.5137 22.651C34.3255 21.2514 34.3654 19.952 35.0239 18.6768C35.7241 17.3198 36.556 16.8134 38.0085 16.4508C38.2515 16.3905 38.3257 16.1568 38.1968 15.9537C37.3555 14.6292 35.1435 13.9058 33.616 13.9401C32.7608 13.9596 32.0838 14.2731 31.3677 14.7192C30.7899 15.079 30.4301 15.6179 29.9858 16.0622C30.0637 14.2239 33.1457 13.2853 33.9832 11.9618C34.7818 10.6967 34.5833 9.08286 34.088 7.74821Z" fill="#520100"/>
<path d="M89.0124 34.2731C86.9599 33.8678 84.5994 35.029 82.7417 36.1086C82.6443 35.9834 82.457 35.9101 82.2863 36.0196C79.2729 37.9432 76.6361 39.6237 74.7737 42.7596C73.1664 45.4659 72.7666 48.305 73.1385 51.4296C73.4678 54.1982 74.8024 56.9574 77.3298 58.3533C79.1096 59.3364 81.3672 59.4144 83.3306 58.8263C83.9038 58.8106 84.4538 58.728 84.9463 58.5685C86.8152 57.9628 88.5542 55.9558 88.5329 53.9051C88.5171 52.3497 87.2493 51.0142 85.692 51.6578C84.7655 52.0409 84.4946 52.8608 85.1059 53.2772C84.1923 53.4275 82.5998 52.6419 82.0294 52.3404C80.8329 51.7079 80.1299 50.8518 79.6402 49.5932C78.8296 47.5073 78.6088 44.7573 79.3916 42.6418C80.2393 40.35 82.303 38.6842 84.5531 37.9348C86.0769 37.4275 88.3455 36.5371 90.1959 36.6345C89.9269 37.7363 91.3932 38.5451 92.1733 37.6232C93.353 36.2292 90.0066 34.4697 89.0124 34.2731ZM76.3773 41.4231C77.0785 40.4826 77.9355 39.7137 78.8574 39.0199C78.0978 39.8408 77.4615 40.7757 76.9699 41.8877C74.795 46.808 73.8676 53.2707 78.3399 57.206C79.068 57.8469 80.09 58.3209 81.178 58.587C79.6467 58.6418 78.1099 58.2606 76.8837 57.334C74.3786 55.441 73.6663 52.358 73.6468 49.3845C73.6264 46.3396 74.5604 43.8586 76.3773 41.4231Z" fill="#520100"/>
<path d="M93.5477 24.3919C75.614 44.0526 60.6333 39.9995 51.3334 28.8753C42.5872 18.4133 47.4639 14.3685 49.7177 12.6796C51.9715 10.9916 54.7104 12.6035 53.4443 13.5106C52.1783 14.4177 52.9454 15.7468 52.9454 15.7468C53.4796 19.5272 59.6576 20.5919 60.9106 14.8314C62.0357 9.65879 55.3624 5.17438 48.0538 6.74924C47.9991 6.71307 47.9295 6.69824 47.8433 6.72328C47.4843 6.82902 47.1301 6.95329 46.7776 7.08592C46.3677 7.21391 45.9568 7.35581 45.5459 7.52461C44.6388 7.89746 43.8681 8.40664 43.2031 9.01136C41.1023 10.5482 39.4338 12.6499 38.6788 15.2162C38.4553 15.974 38.3542 16.7818 38.3301 17.6008C37.6457 18.1777 37.8432 19.4131 37.8942 20.2265C38.0528 22.7455 38.6965 25.2006 39.56 27.5666C41.1886 32.0296 43.9599 36.1458 48.0084 38.7121C51.8352 41.1375 56.0497 42.5065 60.5544 42.9192C62.8305 43.1279 65.3059 43.2828 67.5857 42.9851C68.6894 42.8413 69.704 42.4416 70.6584 41.8767C71.8558 41.1691 72.9642 40.5578 74.2246 39.9865C74.4769 39.8724 74.424 39.5673 74.2478 39.4504C90.2209 34.5543 96.5843 23.3151 101.417 20.669C106.658 17.8003 106.598 26.2051 106.598 26.2051C113.475 26.9564 111.482 4.73113 93.5477 24.3919ZM70.011 40.5495C71.1212 40.3158 72.1869 40.0487 73.2183 39.7574C72.6228 40.0088 72.0441 40.2555 71.4774 40.6237C70.3904 41.3277 69.321 42.0288 68.0299 42.295C65.9913 42.7161 63.668 42.5232 61.5969 42.3878C57.4307 42.1169 53.4601 41.1041 49.8031 39.0655C45.9216 36.9026 43.2513 33.9161 41.2544 29.9446C40.198 27.8448 39.431 25.5688 38.9274 23.2751C38.8115 22.7465 38.2689 20.5066 38.3626 19.1024C38.4164 19.8852 38.5203 20.6596 38.639 21.3923C39.7946 28.5562 46.2851 34.2695 46.7869 34.4689C51.876 39.1082 59.5583 42.7532 70.011 40.5495Z" fill="#520100"/>
<path d="M81.8269 37.9667C81.558 37.772 81.2352 37.7052 80.8865 37.7182C80.8503 37.7506 80.8076 37.7775 80.7473 37.7887C80.5665 37.8211 80.3866 37.8304 80.2057 37.8341C79.1141 38.1448 77.9232 38.9833 77.2535 39.422C75.9606 40.2706 74.5573 41.1916 73.7773 42.5568C72.9991 43.9184 72.3815 45.5906 72.1821 47.1571C72.0142 48.4751 72.4826 50.4015 73.5659 51.3039C73.5696 51.3067 73.5705 51.3113 73.5742 51.3141C73.526 51.5979 73.5186 51.8808 73.5631 52.1563C73.5594 52.1553 73.5566 52.1563 73.5538 52.1553C71.6933 51.5812 70.1991 50.5128 69.625 48.5567C69.1056 46.7862 69.5294 44.9395 70.533 43.4305C71.6988 41.6794 73.09 39.7067 74.9608 38.6512C75.9253 38.1068 76.991 37.7349 78.0641 37.4705C78.6698 37.3212 79.2291 37.3138 79.793 37.2924C80.6277 36.9827 81.5014 36.8769 82.2081 37.4279C82.5429 37.6894 82.1719 38.2172 81.8269 37.9667Z" fill="#520100"/>
<path d="M82.5446 46.0058C82.5094 45.9205 82.4518 45.8723 82.3879 45.8454C82.1801 45.6191 81.9213 45.466 81.5874 45.4744C81.4047 45.479 81.1701 45.6218 81.2331 45.8472C81.6069 46.6958 81.017 47.0539 79.4626 46.9221C79.0721 46.2302 78.9385 45.5152 79.0609 44.7788C79.1008 44.1369 79.2817 43.4868 79.3977 42.8552C79.4718 42.4508 78.843 42.3905 78.767 42.7884C78.4479 44.4513 77.7412 47.0863 79.7714 48.0203C81.0848 48.6241 81.99 47.4314 81.9584 46.2572C81.9603 46.2618 81.9593 46.2655 81.9612 46.2702C81.9974 46.3611 82.0233 46.4594 82.0456 46.5614C82.232 47.5844 81.1849 48.5397 80.289 49.0748C79.9681 49.2214 79.6499 49.3763 79.3198 49.4968C79.1574 49.5562 78.869 49.5822 78.741 49.7296C78.0352 50.5403 79.5451 51.3017 80.2203 51.0356C80.3464 50.9864 80.3974 50.8946 80.4039 50.7981C81.8814 50.2741 83.0074 49.4978 83.0176 47.7792C83.0204 47.2922 82.8878 46.5827 82.5687 46.0772C82.5594 46.054 82.5548 46.0299 82.5446 46.0058Z" fill="#520100"/>
<path d="M22.6651 19.1983C22.6651 19.1983 13.0657 11.2998 7.23369 13.599C1.40075 15.8973 3.34108 18.7085 4.7323 18.0797C6.12445 17.4518 12.4554 12.9164 22.6651 19.1983Z" fill="#520100"/>
</svg>
