<svg width="396" height="28" viewBox="0 0 396 28" fill="none" xmlns="http://www.w3.org/2000/svg">
<path d="M21.5954 13.3592C20.8256 13.3268 19.8462 13.3667 18.9762 13.3008C16.5166 13.1162 14.0801 12.4985 13.1721 8.86278C11.9413 3.94064 16.485 2.99461 17.6212 4.50919C17.6212 4.50919 16.2958 6.21296 18.2834 6.11836C20.271 6.02376 18.4726 1.19623 14.7339 3.04191C14.7339 3.04191 14.9704 2.09588 15.3015 2.14319C15.6326 2.19049 9.76446 0.534002 11.1371 6.78152C11.1371 6.78152 10.4276 6.7342 10.6168 7.49103C10.7708 8.10873 12.1537 11.214 14.0448 12.697C14.4724 13.0318 14.9259 13.285 15.3971 13.4065C16.8495 13.7831 18.9576 14.5139 22.0165 13.7274C22.0109 13.6523 22.151 13.3824 21.5954 13.3592Z" fill="#520100"/>
<path d="M14.2609 12.1073C12.8418 11.139 11.1603 10.3655 9.8776 9.20059C8.81935 8.23879 8.71178 6.98483 9.36937 5.75777C9.62999 5.27177 10.1809 4.7867 10.2329 4.23114C10.2431 4.12355 10.1383 4.04842 10.0437 4.04193C9.78493 4.02338 9.56226 4.02707 9.34616 4.07252C9.7524 3.27396 9.98991 2.39843 9.56512 1.51546C9.12828 0.607457 7.92153 -0.185547 6.89295 0.0398274C6.78444 0.0639416 6.70658 0.22253 6.77985 0.31806C7.30387 0.999761 6.6686 2.01165 6.25123 2.80186C5.53707 0.904233 3.36947 -0.528734 1.35127 0.251271C0.574969 0.550845 -0.126127 1.36704 0.0194876 2.2398C0.133567 2.92243 0.755824 3.37502 1.39486 2.94838C1.44865 2.91221 1.49324 2.85285 1.4886 2.78515C1.45892 2.34181 0.655711 1.81128 1.70655 1.84097C2.70081 1.86879 3.40098 2.82227 3.87399 3.56704C4.66328 4.80894 5.06776 6.15471 6.19836 7.16846C6.70847 7.62571 7.12954 8.14787 7.62389 8.6181C8.23139 9.195 8.97609 9.65967 9.68468 10.0965C11.0787 10.9554 12.4802 11.8653 14.0198 12.4069C14.0235 12.4078 14.0253 12.4069 14.029 12.4078C14.042 12.4171 14.0559 12.4255 14.0698 12.4347C14.272 12.572 14.4612 12.2436 14.2609 12.1073Z" fill="#520100"/>
<path d="M21.7116 10.8255C21.7079 10.4851 21.9508 10.3265 21.8451 9.92675C21.6921 9.35078 20.8295 8.68207 20.2313 8.97237C20.1608 9.00669 20.1172 9.11333 20.1441 9.18568C20.3491 9.74495 20.8731 9.99445 20.5671 10.7132C20.2434 11.4729 19.2918 11.4812 18.5544 11.5118C17.9516 11.5368 17.3134 11.5563 16.7124 11.497C16.1049 11.4376 15.6876 11.1195 15.208 10.7809C15.0086 10.64 14.8194 10.9683 15.017 11.1083C15.0207 11.1111 15.0235 11.113 15.0263 11.1148C15.0365 11.1352 15.0513 11.1547 15.0726 11.1733C16.1615 12.072 17.6325 12.354 19.0135 12.4096C19.8177 12.4421 21.4983 12.6665 21.8897 11.6222C22.0408 11.2215 21.7153 11.1603 21.7116 10.8255Z" fill="#520100"/>
<path d="M15.3011 25.2679C14.97 25.3152 14.7335 24.3692 14.7335 24.3692C18.4721 26.2149 20.2706 21.3874 18.283 21.2928C16.2954 21.1982 17.6207 22.9019 17.6207 22.9019C16.4846 24.4165 11.9418 23.4695 13.1716 18.5483C14.4024 13.6262 22.0207 13.8033 22.0151 13.7273C18.9498 12.9361 16.85 13.6271 15.3957 14.0046C14.9245 14.127 14.471 14.3793 14.0435 14.7141C12.1523 16.1971 10.7703 19.3024 10.6154 19.9201C10.4262 20.6769 11.1358 20.6296 11.1358 20.6296C9.76404 26.8771 15.6322 25.2206 15.3011 25.2679Z" fill="#520100"/>
<path d="M14.0698 14.9771C14.0569 14.9864 14.0429 14.9947 14.029 15.004C14.0262 15.0049 14.0235 15.004 14.0198 15.0049C12.4802 15.5466 11.0796 16.4564 9.68468 17.3153C8.97516 17.7521 8.23046 18.2158 7.62389 18.7927C7.12861 19.2639 6.70847 19.7852 6.19836 20.2424C5.06776 21.2561 4.66235 22.6019 3.87399 23.8438C3.40098 24.5886 2.70081 25.5411 1.70655 25.5698C0.655711 25.5995 1.45892 25.069 1.4886 24.6257C1.49324 24.558 1.44865 24.4977 1.39486 24.4624C0.754897 24.0358 0.13264 24.4893 0.0194874 25.171C-0.126127 26.0429 0.574968 26.86 1.35127 27.1595C3.36947 27.9396 5.538 26.5066 6.25123 24.609C6.66953 25.4001 7.30387 26.4111 6.77985 27.0928C6.70658 27.1883 6.78444 27.3469 6.89295 27.371C7.92153 27.5964 9.12735 26.8034 9.56512 25.8954C9.98991 25.0125 9.75332 24.1378 9.34616 23.3393C9.56226 23.3847 9.78493 23.3884 10.0437 23.3699C10.1383 23.3634 10.2431 23.2883 10.2329 23.1807C10.1809 22.6251 9.62906 22.14 9.36937 21.654C8.71178 20.426 8.81842 19.173 9.8776 18.2103C11.1594 17.0454 12.8418 16.2719 14.2609 15.3036C14.4612 15.1672 14.272 14.8389 14.0698 14.9771Z" fill="#520100"/>
<path d="M8.45599 11.4489C7.36899 11.0825 6.34777 10.8757 5.19769 11.0417C4.25259 11.178 3.22408 11.7456 2.64904 12.5164C2.4654 12.7631 2.1528 13.3057 2.14817 13.749C2.14817 13.7564 2.14726 13.7638 2.14726 13.7722C2.14726 13.7796 2.14817 13.787 2.14817 13.7954C2.1528 14.2387 2.4654 14.7813 2.64904 15.028C3.22408 15.7997 4.25166 16.3673 5.19769 16.5027C6.34777 16.6678 7.36899 16.4619 8.45599 16.0955C8.75279 15.9954 12.6167 14.8843 12.6167 13.7722C12.6176 12.6602 8.75279 11.549 8.45599 11.4489Z" fill="#520100"/>
<path d="M21.8897 15.7872C21.4973 14.7438 19.8177 14.9674 19.0135 14.9998C17.6325 15.0564 16.1615 15.3374 15.0726 16.2361C15.0504 16.2547 15.0365 16.2742 15.0263 16.2946C15.0226 16.2973 15.0198 16.2992 15.017 16.301C14.8194 16.4402 15.0086 16.7685 15.208 16.6275C15.6876 16.289 16.1049 15.9709 16.7124 15.9115C17.3134 15.8531 17.9516 15.8726 18.5544 15.8967C19.2918 15.9273 20.2434 15.9356 20.5671 16.6953C20.874 17.415 20.3491 17.6645 20.1441 18.2237C20.1172 18.2961 20.1608 18.4037 20.2313 18.4371C20.8295 18.7274 21.6921 18.0587 21.8451 17.4827C21.9508 17.0829 21.7079 16.9243 21.7116 16.584C21.7153 16.2501 22.0408 16.1888 21.8897 15.7872Z" fill="#520100"/>
<path d="M374.404 13.3592C375.174 13.3267 376.153 13.3666 377.023 13.3008C379.483 13.1162 381.919 12.4985 382.827 8.86279C384.058 3.94065 379.514 2.99461 378.379 4.50918C378.379 4.50918 379.704 6.21296 377.717 6.11835C375.729 6.02374 377.528 1.19622 381.266 3.04191C381.266 3.04191 381.03 2.09589 380.699 2.14319C380.368 2.19049 386.236 0.534027 384.863 6.78154C384.863 6.78154 385.573 6.73423 385.383 7.49105C385.229 8.10875 383.847 11.214 381.955 12.697C381.528 13.0318 381.074 13.285 380.603 13.4065C379.151 13.7831 377.043 14.5139 373.984 13.7274C373.989 13.6523 373.848 13.3824 374.404 13.3592Z" fill="#520100"/>
<path d="M381.929 12.4338C381.942 12.4245 381.956 12.4162 381.97 12.4069C381.973 12.406 381.976 12.4069 381.979 12.406C383.519 11.8644 384.92 10.9545 386.314 10.0957C387.023 9.65881 387.769 9.19505 388.375 8.61723C388.871 8.14607 389.291 7.62484 389.802 7.16759C390.932 6.15386 391.338 4.80809 392.126 3.56619C392.599 2.82142 393.299 1.86798 394.294 1.84016C395.344 1.81048 394.541 2.341 394.512 2.78434C394.507 2.85297 394.551 2.91233 394.605 2.94757C395.245 3.37421 395.868 2.92067 395.981 2.23897C396.126 1.36621 395.425 0.550015 394.649 0.250436C392.631 -0.529581 390.462 0.903374 389.748 2.801C389.33 2.00986 388.695 0.99892 389.219 0.317222C389.293 0.221691 389.215 0.063075 389.106 0.0389601C388.078 -0.18642 386.872 0.606577 386.434 1.51458C386.009 2.39754 386.246 3.27218 386.653 4.07167C386.437 4.02622 386.214 4.02249 385.956 4.04104C385.861 4.04753 385.756 4.12267 385.766 4.23025C385.818 4.78582 386.369 5.27089 386.63 5.75689C387.287 6.98488 387.181 8.23791 386.122 9.1997C384.84 10.3646 383.157 11.1381 381.738 12.1064C381.538 12.2437 381.728 12.572 381.929 12.4338Z" fill="#520100"/>
<path d="M374.11 11.6231C374.502 12.6665 376.182 12.443 376.986 12.4105C378.367 12.3549 379.838 12.0729 380.927 11.1742C380.949 11.1557 380.963 11.1362 380.974 11.1158C380.978 11.113 380.981 11.1111 380.983 11.1093C381.181 10.9702 380.992 10.6418 380.792 10.7819C380.313 11.1204 379.895 11.4385 379.288 11.4979C378.687 11.5563 378.049 11.5368 377.446 11.5127C376.709 11.4821 375.757 11.4738 375.433 10.7142C375.126 9.99444 375.651 9.74495 375.855 9.18661C375.882 9.11334 375.839 9.00666 375.768 8.97328C375.17 8.68297 374.307 9.35171 374.154 9.92767C374.049 10.3274 374.292 10.486 374.288 10.8264C374.284 11.1603 373.959 11.2215 374.11 11.6231Z" fill="#520100"/>
<path d="M380.698 25.2679C381.029 25.3152 381.265 24.3692 381.265 24.3692C377.527 26.2149 375.728 21.3874 377.716 21.2928C379.704 21.1982 378.378 22.9019 378.378 22.9019C379.514 24.4165 384.057 23.4696 382.826 18.5483C381.596 13.6262 373.977 13.8033 373.983 13.7273C377.048 12.9361 379.148 13.6271 380.602 14.0046C381.073 14.127 381.527 14.3793 381.955 14.7141C383.846 16.1972 385.228 19.3024 385.382 19.9201C385.572 20.6769 384.862 20.6296 384.862 20.6296C386.236 26.8771 380.367 25.2206 380.698 25.2679Z" fill="#520100"/>
<path d="M381.738 15.304C383.157 16.2723 384.839 17.0459 386.122 18.2108C387.18 19.1726 387.287 20.4265 386.63 21.6545C386.369 22.1405 385.818 22.6256 385.766 23.1811C385.756 23.2887 385.861 23.3639 385.956 23.3703C386.214 23.3889 386.437 23.3843 386.653 23.3398C386.247 24.1383 386.009 25.0138 386.434 25.8959C386.871 26.8039 388.078 27.5969 389.106 27.3715C389.215 27.3474 389.293 27.1888 389.219 27.0933C388.695 26.4116 389.331 25.3997 389.748 24.6095C390.462 26.5071 392.63 27.9401 394.649 27.16C395.424 26.8605 396.126 26.0443 395.981 25.1715C395.867 24.4889 395.244 24.0363 394.605 24.4629C394.551 24.4991 394.507 24.5585 394.512 24.6262C394.541 25.0695 395.344 25.6 394.294 25.5703C393.299 25.5425 392.599 24.589 392.126 23.8443C391.338 22.6024 390.932 21.2566 389.802 20.2429C389.292 19.7856 388.871 19.2635 388.375 18.7932C387.768 18.2163 387.023 17.7517 386.315 17.3158C384.92 16.4569 383.519 15.547 381.979 15.0054C381.976 15.0044 381.974 15.0054 381.97 15.0045C381.957 14.9952 381.943 14.9868 381.929 14.9776C381.728 14.8384 381.538 15.1668 381.738 15.304Z" fill="#520100"/>
<path d="M387.544 11.4486C388.631 11.0823 389.652 10.8754 390.802 11.0415C391.747 11.1778 392.776 11.7454 393.351 12.5161C393.534 12.7629 393.847 13.3054 393.852 13.7488C393.852 13.7562 393.853 13.7636 393.853 13.772C393.853 13.7794 393.852 13.7868 393.852 13.7951C393.847 14.2385 393.534 14.7811 393.351 15.0278C392.776 15.7994 391.747 16.3671 390.802 16.5025C389.652 16.6676 388.631 16.4617 387.544 16.0953C387.247 15.9951 383.383 14.884 383.383 13.772C383.383 12.6599 387.247 11.5488 387.544 11.4486Z" fill="#520100"/>
<path d="M374.288 16.5854C374.292 16.9258 374.049 17.0844 374.154 17.4841C374.307 18.0601 375.17 18.7288 375.768 18.4385C375.839 18.4042 375.882 18.2975 375.855 18.2252C375.65 17.6659 375.126 17.4164 375.433 16.6967C375.757 15.938 376.709 15.9287 377.446 15.8981C378.049 15.8731 378.687 15.8536 379.288 15.913C379.895 15.9724 380.313 16.2905 380.792 16.629C380.992 16.77 381.181 16.4416 380.983 16.3025C380.98 16.2997 380.977 16.2979 380.974 16.296C380.964 16.2756 380.949 16.2561 380.927 16.2376C379.838 15.3389 378.367 15.0569 376.986 15.0013C376.182 14.9688 374.502 14.7453 374.11 15.7887C373.959 16.1894 374.284 16.2506 374.288 16.5854Z" fill="#520100"/>
<path d="M16.3817 12.7075L375.874 12.7079C376.395 12.7079 376.818 13.1308 376.818 13.6521C376.818 14.1733 376.395 14.5963 375.874 14.5963L16.3826 14.5959C15.8614 14.5959 15.4384 14.173 15.4384 13.6517C15.4384 13.1305 15.8605 12.7075 16.3817 12.7075Z" fill="#520100"/>
</svg>
