<svg width="55" height="55" viewBox="0 0 55 55" fill="none" xmlns="http://www.w3.org/2000/svg">
<path fill-rule="evenodd" clip-rule="evenodd" d="M18.5764 41.8163C12.1414 36.8571 4.5835 31.034 4.5835 20.9392C4.5835 9.79481 17.1877 1.89085 27.5002 12.6067V46.9794C25.2085 46.9794 22.9168 45.2148 20.5381 43.3356C19.901 42.8376 19.2471 42.3311 18.5764 41.8163Z" fill="#AC9A59"/>
<path d="M34.4621 43.3355C41.2065 38.0234 50.4167 32.0834 50.4167 20.9413C50.4167 9.79926 37.8125 1.89072 27.5 12.6066V46.9793C29.7917 46.9793 32.0833 45.2147 34.4621 43.3355Z" fill="white"/>
<path d="M34.3638 33.255C33.9638 33.255 33.5988 33.165 33.2688 32.985C32.9488 32.795 32.6788 32.55 32.4588 32.25C32.2388 31.95 32.0838 31.64 31.9938 31.32C31.9438 31.13 31.9388 30.97 31.9788 30.84C32.0188 30.71 32.1338 30.615 32.3238 30.555C32.5138 30.485 32.6638 30.48 32.7738 30.54C32.8838 30.6 32.9838 30.715 33.0738 30.885C33.1838 31.125 33.3038 31.33 33.4338 31.5C33.5738 31.67 33.7288 31.795 33.8988 31.875C34.0688 31.945 34.2488 31.98 34.4388 31.98C34.7988 31.98 35.0988 31.84 35.3388 31.56C35.5888 31.28 35.8338 30.77 36.0738 30.03L39.4938 19.455H37.6188C37.0888 19.455 36.6288 19.51 36.2388 19.62C35.8488 19.73 35.5188 19.905 35.2488 20.145C34.9788 20.385 34.7638 20.705 34.6038 21.105C34.5238 21.305 34.4138 21.43 34.2738 21.48C34.1438 21.53 33.9788 21.535 33.7788 21.495C33.6388 21.455 33.5388 21.39 33.4788 21.3C33.4288 21.21 33.4288 21.07 33.4788 20.88C33.5988 20.48 33.7788 20.125 34.0188 19.815C34.2688 19.495 34.5738 19.22 34.9338 18.99C35.2938 18.75 35.7088 18.57 36.1788 18.45C36.6588 18.32 37.1888 18.255 37.7688 18.255H45.6288C45.7788 18.255 45.8688 18.3 45.8988 18.39C45.9388 18.47 45.9188 18.625 45.8388 18.855C45.7688 19.075 45.6888 19.23 45.5988 19.32C45.5088 19.41 45.3888 19.455 45.2388 19.455H40.8438L37.4238 30.015C37.2138 30.675 36.9688 31.25 36.6888 31.74C36.4088 32.23 36.0788 32.605 35.6988 32.865C35.3188 33.125 34.8738 33.255 34.3638 33.255Z" fill="#520100"/>
<path d="M18.9172 32.255C18.5072 32.255 18.1022 32.21 17.7022 32.12C17.3022 32.03 16.9022 31.925 16.5022 31.805C16.1122 31.685 15.7272 31.58 15.3472 31.49C14.9772 31.4 14.6022 31.355 14.2222 31.355C13.9322 31.355 13.6522 31.385 13.3822 31.445C13.1122 31.505 12.8472 31.595 12.5872 31.715C12.3272 31.825 12.0522 31.96 11.7622 32.12C11.6122 32.2 11.4572 32.24 11.2972 32.24C11.1472 32.24 11.0222 32.17 10.9222 32.03C10.8422 31.91 10.8172 31.8 10.8472 31.7C10.8672 31.6 10.9472 31.475 11.0872 31.325L23.0872 18.92C22.9872 18.95 22.8872 18.97 22.7872 18.98C22.6972 18.99 22.6022 18.995 22.5022 18.995C22.1822 18.995 21.8772 18.96 21.5872 18.89C21.3072 18.81 21.0372 18.72 20.7772 18.62C20.5172 18.52 20.2472 18.435 19.9672 18.365C19.6872 18.295 19.3872 18.26 19.0672 18.26C18.7572 18.26 18.4272 18.32 18.0772 18.44C17.7272 18.55 17.3722 18.71 17.0122 18.92C16.6622 19.13 16.3222 19.385 15.9922 19.685C15.8322 19.825 15.6822 19.89 15.5422 19.88C15.4122 19.87 15.2822 19.795 15.1522 19.655C15.0122 19.515 14.9472 19.38 14.9572 19.25C14.9672 19.12 15.0472 18.98 15.1972 18.83C15.6372 18.44 16.0672 18.11 16.4872 17.84C16.9172 17.56 17.3472 17.35 17.7772 17.21C18.2172 17.06 18.6772 16.985 19.1572 16.985C19.5572 16.985 19.9122 17.025 20.2222 17.105C20.5422 17.185 20.8422 17.28 21.1222 17.39C21.4022 17.5 21.6872 17.595 21.9772 17.675C22.2672 17.755 22.5822 17.795 22.9222 17.795C23.3222 17.795 23.6822 17.755 24.0022 17.675C24.3222 17.585 24.6672 17.445 25.0372 17.255C25.1572 17.185 25.2672 17.155 25.3672 17.165C25.4772 17.175 25.5822 17.235 25.6822 17.345C25.7922 17.455 25.8422 17.565 25.8322 17.675C25.8322 17.785 25.7372 17.935 25.5472 18.125L13.9072 30.2C14.0272 30.16 14.1572 30.135 14.2972 30.125C14.4372 30.105 14.5822 30.095 14.7322 30.095C15.1222 30.095 15.4972 30.145 15.8572 30.245C16.2172 30.335 16.5772 30.44 16.9372 30.56C17.2972 30.67 17.6572 30.775 18.0172 30.875C18.3872 30.965 18.7672 31.01 19.1572 31.01C19.6672 31.01 20.1372 30.91 20.5672 30.71C21.0072 30.51 21.4072 30.23 21.7672 29.87C22.1372 29.5 22.4672 29.06 22.7572 28.55C22.8372 28.42 22.9372 28.345 23.0572 28.325C23.1872 28.295 23.3372 28.32 23.5072 28.4C23.7072 28.5 23.8272 28.61 23.8672 28.73C23.9172 28.85 23.8972 28.985 23.8072 29.135C23.4072 29.825 22.9672 30.405 22.4872 30.875C22.0072 31.335 21.4722 31.68 20.8822 31.91C20.2922 32.14 19.6372 32.255 18.9172 32.255Z" fill="white"/>
</svg>
