<svg width="24" height="24" viewBox="0 0 24 24" fill="none" xmlns="http://www.w3.org/2000/svg">
<path fill-rule="evenodd" clip-rule="evenodd" d="M14.0142 17L14.0082 19.003C14.0072 19.473 14.0062 19.708 13.8592 19.854C13.7122 20 13.4772 20 13.0052 20H9.99523C6.21523 20 4.32523 20 3.15023 18.828C2.34023 18.022 2.08923 16.877 2.01023 15.011C1.99523 14.641 1.98723 14.455 2.05623 14.332C2.12623 14.209 2.40123 14.055 2.95323 13.746C3.26416 13.5727 3.52317 13.3194 3.70347 13.0125C3.88378 12.7055 3.97884 12.356 3.97884 12C3.97884 11.644 3.88378 11.2945 3.70347 10.9875C3.52317 10.6806 3.26416 10.4273 2.95323 10.254C2.40123 9.946 2.12523 9.791 2.05623 9.668C1.98723 9.545 1.99523 9.36 2.01123 8.989C2.08923 7.123 2.34123 5.979 3.15023 5.172C4.32423 4 6.21423 4 9.99523 4H13.5052C13.5709 3.99987 13.6359 4.01267 13.6966 4.03768C13.7574 4.06268 13.8126 4.0994 13.8591 4.14574C13.9056 4.19208 13.9425 4.24712 13.9678 4.30774C13.993 4.36835 14.0061 4.43334 14.0062 4.499L14.0142 7C14.0142 7.552 14.4632 8 15.0162 8V10C14.4632 10 14.0142 10.448 14.0142 11V13C14.0142 13.552 14.4632 14 15.0162 14V16C14.4632 16 14.0142 16.448 14.0142 17Z" fill="#EEE6E6"/>
<path opacity="0.5" d="M15.0171 15.9999C15.5701 15.9999 16.0191 16.4479 16.0191 16.9999V18.9759C16.0191 19.4579 16.0191 19.6989 16.1741 19.8459C16.3281 19.9939 16.5641 19.9839 17.0371 19.9639C18.9001 19.8849 20.0441 19.6329 20.8511 18.8279C21.6601 18.0219 21.9111 16.8759 21.9901 15.0099C22.0051 14.6399 22.0131 14.4549 21.9441 14.3319C21.8751 14.2079 21.5991 14.0539 21.0471 13.7459C20.7362 13.5726 20.4772 13.3194 20.2968 13.0124C20.1165 12.7055 20.0215 12.3559 20.0215 11.9999C20.0215 11.644 20.1165 11.2944 20.2968 10.9875C20.4772 10.6805 20.7362 10.4273 21.0471 10.2539C21.5991 9.94494 21.8751 9.79094 21.9441 9.66794C22.0141 9.54394 22.0051 9.35894 21.9901 8.98894C21.9111 7.12294 21.6601 5.97794 20.8501 5.17094C19.9731 4.29594 18.6961 4.07494 16.5281 4.01894C16.4618 4.01734 16.3959 4.02902 16.3342 4.05328C16.2725 4.07753 16.2163 4.11389 16.1689 4.1602C16.1214 4.20651 16.0838 4.26184 16.058 4.32294C16.0323 4.38403 16.0191 4.44965 16.0191 4.51594V6.99994C16.0191 7.55194 15.5701 7.99994 15.0171 7.99994V9.99994C15.1486 9.99968 15.2788 10.0254 15.4004 10.0755C15.5219 10.1256 15.6324 10.1992 15.7255 10.2921C15.8186 10.385 15.8924 10.4953 15.9428 10.6168C15.9932 10.7383 16.0191 10.8685 16.0191 10.9999V12.9999C16.0191 13.5519 15.5701 13.9999 15.0171 13.9999V15.9999Z" fill="#EEE6E6"/>
</svg>
